<?xml version="1.0" encoding="UTF-8"?>
<svg id="housename_banner_kopi" data-name="housename banner kopi" xmlns="http://www.w3.org/2000/svg" xmlns:xlink="http://www.w3.org/1999/xlink" viewBox="0 0 203 72">
  <defs>
    <style>
      .cls-1 {
        fill: url(#Ikke-navngivet_forløb_403);
      }

      .cls-1, .cls-2, .cls-3 {
        stroke: gold;
        stroke-miterlimit: 10;
      }

      .cls-2 {
        fill: url(#Ikke-navngivet_forløb_479-2);
      }

      .cls-3 {
        fill: url(#Ikke-navngivet_forløb_479);
      }
    </style>
    <linearGradient id="Ikke-navngivet_forløb_403" data-name="Ikke-navngivet forløb 403" x1="30.06" y1="-233.53" x2="188.66" y2="-233.53" gradientTransform="translate(5.84 272.52) rotate(-3.16)" gradientUnits="userSpaceOnUse">
      <stop offset="0" stop-color="#ffebca"/>
      <stop offset=".52" stop-color="#ffebcb"/>
      <stop offset=".57" stop-color="#ffebcd"/>
      <stop offset=".97" stop-color="#ffebcd"/>
    </linearGradient>
    <linearGradient id="Ikke-navngivet_forløb_479" data-name="Ikke-navngivet forløb 479" x1="22.46" y1="15.99" x2="43.46" y2="15.99" gradientUnits="userSpaceOnUse">
      <stop offset="0" stop-color="#d4c082"/>
      <stop offset=".46" stop-color="#d5c183"/>
      <stop offset=".63" stop-color="#d8c48a"/>
      <stop offset=".75" stop-color="#dfcb96"/>
      <stop offset=".84" stop-color="#e9d5a7"/>
      <stop offset=".92" stop-color="#f5e1bd"/>
      <stop offset=".97" stop-color="#ffebcd"/>
    </linearGradient>
    <linearGradient id="Ikke-navngivet_forløb_479-2" data-name="Ikke-navngivet forløb 479" x1="12753.65" y1="3734.13" x2="12783.74" y2="3734.13" gradientTransform="translate(7316.42 -1335.21) rotate(148.64) scale(.53 .68)" xlink:href="#Ikke-navngivet_forløb_479"/>
  </defs>
  <g>
    <path class="cls-1" d="m22.19,23l3.35,38.91s50.58-15.17,79.15-16.26,77.5-1.54,77.5-1.54l-8.48-39.11-16.05,1.41-53.81,2.9c-2.31.12-4.6.38-6.88.78L22.19,23Z"/>
    <polygon class="cls-3" points="43.46 9.67 37.63 21.15 22.46 22.3 43.46 9.67"/>
    <polygon class="cls-2" points="169.5 57.75 169.29 45.26 180 44.11 169.5 57.75"/>
  </g>
  <g>
    <path d="m61.14,35.99c-.02.87-.16,4.35-.26,5.38-4.67,1.2-9.3,2.55-13.89,4.04-.07-.3-.14-.6-.22-.9,2.59-1.07,2.73-1.41,2.11-4.06-.99-4.25-1.99-8.5-3.01-12.75-.69-2.87-1.06-2.95-3.39-2.54-.07-.3-.15-.6-.23-.91,3.09-.88,6.21-1.7,9.33-2.46,2.88-.7,4.08-.99,4.44-1.1.2.79.82,3.17,1.29,4.83-.29.12-.58.25-.88.37-.5-1.03-.94-1.63-1.42-2.22-.71-.94-1.47-1.01-3.3-.56-.97.24-1.93.48-2.9.73-.94.24-.98.36-.76,1.29.55,2.38,1.1,4.75,1.64,7.12,1.1-.3,2.19-.6,3.29-.89,2.23-.58,2.28-1.09,2.18-3.36.31-.08.62-.15.93-.23.46,2.2.92,4.4,1.37,6.59-.3.08-.61.15-.91.23-.86-2.2-1.17-2.47-3.31-1.91-1.09.29-2.17.58-3.25.88.49,2.14.97,4.27,1.45,6.41.51,2.25,1.18,2.25,2.62,1.88.89-.25,1.78-.5,2.67-.75,1.76-.48,1.99-.84,2.46-1.83.41-.81.77-2.27.99-3.33.31.01.62.03.93.04Z"/>
    <path d="m69.97,39.22c-.05-.29-.1-.59-.15-.88,1.23-.43,1.46-.7.82-1.45-.94-1.08-1.88-2.16-2.84-3.23-.45,1.28-.9,2.53-1.29,3.77-.36,1.2-.25,1.47,1.3,1.35.05.3.1.59.15.89-1.83.41-3.65.85-5.47,1.3-.06-.3-.11-.59-.17-.89,1.78-.7,2.11-1.01,2.91-2.82.59-1.43,1.14-2.83,1.77-4.45-1.1-1.25-2.22-2.49-3.34-3.73-1.19-1.33-1.6-1.48-3.33-1.32-.06-.29-.11-.57-.17-.86,2.02-.45,4.06-.88,6.09-1.28.05.29.1.57.15.86-1.24.44-1.31.73-.6,1.53.78.84,1.55,1.68,2.31,2.52.41-1.03.83-2.22,1.21-3.27.37-.98.14-1.2-1.19-1.11-.05-.28-.1-.57-.15-.85,1.85-.35,3.7-.68,5.55-.99.04.28.09.57.13.85-1.62.47-2.24.7-3.18,2.57-.32.68-.88,1.86-1.59,3.63,1.22,1.37,2.43,2.73,3.62,4.1,1.39,1.51,1.75,1.73,3.58,1.64.04.29.09.58.13.88-2.09.39-4.18.82-6.27,1.27Z"/>
    <path d="m74.84,24.75c1.4-.45,2.92-1.23,4.25-2.02.1.75.24,1.75.35,2.5.08-.08,2.34-1.85,2.46-1.93.69-.5,1.31-.8,1.71-.85,3.41-.41,5.79,2.23,6.1,5.27.47,4.67-2.79,8.05-6.53,9.41-.88.11-1.71-.04-2.16-.22.18,1.4.37,2.8.55,4.2.3,2.3.55,2.44,2.79,2.28.03.29.07.58.1.87-2.26.39-4.52.81-6.77,1.26-.04-.29-.08-.58-.13-.88,1.83-.59,2.04-.78,1.75-2.87-.65-4.73-1.32-9.47-2-14.21-.27-1.88-.35-2-2.34-1.96-.04-.28-.09-.56-.13-.85Zm5.89,9.99c.78.61,1.99.92,2.96.77,2.56-.39,3.98-2.86,3.59-6.31-.37-3.33-2.53-5-4.71-4.72-1.07.14-2.26,1.03-3,1.78.39,2.83.77,5.65,1.15,8.48Z"/>
    <path d="m103.58,31.88c-1.78,2.53-3.81,3.23-4.77,3.31-3.61.34-6.07-2.45-6.42-5.99-.2-2.08.34-4.09,1.48-5.55,1.16-1.55,2.8-2.47,4.43-2.57,2.72-.17,4.92,2.02,5.06,4.43,0,.6-.07.88-.55,1.03-.61.15-4.5.65-8.11,1.11.28,4.11,2.86,5.53,4.98,5.36,1.22-.1,2.33-.7,3.38-1.79.17.22.35.44.52.66Zm-5.94-9.59c-1.43.09-2.71,1.52-2.91,4.03,1.71-.15,3.42-.28,5.23-.49.55-.04.73-.2.69-.65-.08-1.6-1.27-3-3.01-2.89Z"/>
    <path d="m105.22,34.34c-.01-.28-.03-.56-.04-.84,1.9-.29,2.14-.45,2.05-2.42-.22-4.78-.46-9.57-.71-14.37-.1-1.83-.27-2.01-2.32-2.21-.02-.26-.03-.52-.05-.78,1.71-.23,3.68-.73,4.69-1.1.07,1.41.14,2.85.2,4.25.21,4.71.41,9.41.59,14.1.07,1.97.26,2.1,2.21,2.22,0,.28.02.55.02.83-2.21.07-4.42.18-6.63.32Z"/>
    <path d="m113.16,33.98c0-.28-.01-.55-.02-.83,1.92-.23,2.15-.37,2.12-2.32-.08-4.71-.19-9.43-.31-14.17-.05-1.81-.21-1.99-2.27-2.25,0-.26-.02-.52-.03-.77,1.72-.17,3.7-.6,4.73-.92.03,1.39.05,2.81.08,4.19.08,4.64.15,9.28.19,13.9.02,1.94.2,2.08,2.15,2.25,0,.27,0,.55,0,.82-2.22,0-4.43.03-6.65.09Z"/>
    <path d="m132.41,31.8c-2.04,2.17-4.15,2.59-5.11,2.56-3.65-.1-5.84-3.01-5.85-6.38,0-1.99.74-3.81,2.03-5.05,1.32-1.32,3.06-1.99,4.7-1.9,2.74.16,4.74,2.48,4.64,4.76-.05.57-.16.82-.66.9-.62.07-4.58.08-8.25.1-.12,3.9,2.33,5.54,4.47,5.62,1.24.05,2.4-.38,3.57-1.29.15.23.31.46.46.68Zm-5-9.72c-1.44-.08-2.87,1.11-3.32,3.45,1.73.06,3.46.13,5.29.15.56.03.75-.1.76-.53.08-1.52-.98-2.97-2.73-3.07Z"/>
    <path d="m149.26,35.04c-.65.03-2.95.08-4.77.48.05-.58.11-1.22.17-1.8-.57.24-1.39.55-1.96.81-1.26.52-2.08.62-2.44.59-2.39-.21-5.44-2.68-5.26-6.66.18-3.96,4.16-6.6,8.5-6.07.44.05,1.48.24,2.12.57.12-1.37.23-2.73.34-4.1.15-1.78-.07-1.88-2.35-2.35.02-.24.03-.49.05-.73,1.63,0,3.92-.06,5.15-.24-.09,1.03-.2,2.25-.3,3.39-.41,4.45-.83,8.89-1.28,13.31-.14,1.44.05,1.65,1.16,1.84.32.06.64.12.96.18-.03.26-.06.51-.09.77Zm-3.84-9.88c-.63-1.07-1.95-1.68-3.17-1.82-1.51-.18-4.23.46-4.47,4.54-.2,3.42,1.95,5.4,3.88,5.61,1.09.1,2.31-.28,3.09-.69.23-2.54.46-5.09.68-7.64Z"/>
  </g>
</svg>