<?xml version="1.0" encoding="UTF-8"?>
<svg id="housename_banner" data-name="housename banner" xmlns="http://www.w3.org/2000/svg" xmlns:xlink="http://www.w3.org/1999/xlink" viewBox="0 0 189 186">
  <defs>
    <style>
      .cls-1 {
        fill: url(#Ikke-navngivet_forløb_403);
      }

      .cls-1, .cls-2, .cls-3 {
        stroke: gold;
        stroke-miterlimit: 10;
      }

      .cls-2 {
        fill: url(#Ikke-navngivet_forløb_479-2);
      }

      .cls-3 {
        fill: url(#Ikke-navngivet_forløb_479);
      }
    </style>
    <linearGradient id="Ikke-navngivet_forløb_403" data-name="Ikke-navngivet forløb 403" x1="9.8" y1="-147.34" x2="165.8" y2="-147.34" gradientTransform="translate(14.71 258.27) rotate(-3.16)" gradientUnits="userSpaceOnUse">
      <stop offset="0" stop-color="#ffebca"/>
      <stop offset=".52" stop-color="#ffebcb"/>
      <stop offset=".57" stop-color="#ffebcd"/>
      <stop offset=".97" stop-color="#ffebcd"/>
    </linearGradient>
    <linearGradient id="Ikke-navngivet_forløb_479" data-name="Ikke-navngivet forløb 479" x1="15.85" y1="88.99" x2="36.51" y2="88.99" gradientUnits="userSpaceOnUse">
      <stop offset="0" stop-color="#d4c082"/>
      <stop offset=".46" stop-color="#d5c183"/>
      <stop offset=".63" stop-color="#d8c48a"/>
      <stop offset=".75" stop-color="#dfcb96"/>
      <stop offset=".84" stop-color="#e9d5a7"/>
      <stop offset=".92" stop-color="#f5e1bd"/>
      <stop offset=".97" stop-color="#ffebcd"/>
    </linearGradient>
    <linearGradient id="Ikke-navngivet_forløb_479-2" data-name="Ikke-navngivet forløb 479" x1="12343.04" y1="3075.21" x2="12372.85" y2="3075.21" gradientTransform="translate(6887.22 -1530.01) rotate(148.64) scale(.53 .68)" xlink:href="#Ikke-navngivet_forløb_479"/>
  </defs>
  <g>
    <path class="cls-1" d="m15.58,96l3.3,38.91s49.76-15.17,77.87-16.26,76.24-1.54,76.24-1.54l-8.35-39.11-15.79,1.41-52.94,2.9c-2.27.12-4.53.38-6.77.78l-73.56,12.91Z"/>
    <polygon class="cls-3" points="36.51 82.67 30.77 94.15 15.85 95.3 36.51 82.67"/>
    <polygon class="cls-2" points="160.5 130.75 160.3 118.26 170.83 117.11 160.5 130.75"/>
  </g>
  <g>
    <path d="m51.24,106.43c-1.75.69-1.82.92-1.39,2.8.2.9.41,1.79.61,2.69.25,1.12.52,2.17.86,3-1.66.9-3.77,2.22-6.13,2.89-6.33,1.83-11.4-1.44-13.27-7.96-1.97-6.84,1.97-12.44,8.02-13.94,3.07-.77,5.5-.65,6.47-.7.34,1.17.95,3.1,1.65,5.06-.28.13-.56.27-.85.41-1.35-2.56-2.5-3.51-4.56-3.72-.75-.09-2.02.05-2.89.28-4.6,1.17-6.6,5.42-4.96,11.33,1.43,5.16,5.09,9.5,10.52,7.95.96-.27,1.78-.73,2.27-1.21.5-.55.79-1,.48-2.31-.21-.88-.41-1.75-.62-2.63-.55-2.34-.85-2.55-3.68-2.04-.08-.31-.15-.62-.23-.93,2.49-.66,4.98-1.29,7.49-1.88.07.31.14.62.21.93Z"/>
    <path d="m61.53,113.17c-2.19.48-4.37.99-6.54,1.53-.06-.3-.13-.6-.19-.89,1.75-.63,1.89-.82,1.46-2.89-.46-2.21-.93-4.42-1.39-6.63-.45-2.1-.59-2.18-2.35-2.02-.06-.27-.12-.53-.17-.8,1.4-.58,2.65-1.25,3.92-2.21.22,1.05.51,2.45.72,3.5.69-1.88,1.6-3.88,3.1-4.17,1.11-.21,1.88.4,2.03,1.19.14.73-.21,1.52-.68,1.94-.26.25-.5.26-.78.09-.54-.39-.96-.63-1.49-.52-.63.13-1.52,1.34-1.84,3.1.41,2,.81,3.99,1.21,5.98.42,2.1.6,2.22,2.84,1.92.06.3.11.59.17.89Z"/>
    <path d="m77.93,96.91c-1.54.46-1.84.76-2.32,2.65-.48,1.87-.99,4.11-2.16,9.91-1.1,5.35-1.28,7.41-1.48,9.13-.06.69-.35.91-.71.99-.89.18-1.82-.37-1.96-1.16-.07-.41.08-.73.43-1.23.77-.97,1.3-1.85,1.52-2.7.38-1.43.64-2.61.72-3.05.04-.49,0-.78-.26-1.28-1.69-3.38-3.94-6.97-5.24-9.08-.96-1.62-1.3-1.95-2.99-1.87-.05-.29-.11-.57-.16-.86,2.02-.37,4.04-.72,6.07-1.05.05.28.09.57.14.85-1.35.45-1.44.79-.85,1.89,1.4,2.42,2.77,4.84,4.12,7.25.48-2.31,1.13-5.98,1.46-8.05.18-1.24-.08-1.56-1.87-1.55-.04-.28-.09-.57-.13-.85,1.84-.28,3.69-.55,5.54-.79.04.28.08.56.12.84Z"/>
    <path d="m81.1,96.94c-.72.09-1.43.18-2.15.27-.06-.11-.11-.22-.17-.33.18-.34.36-.68.54-1.02.54-.07,1.07-.14,1.61-.2,0-.05-.01-.1-.02-.15-.29-2.24.36-4.61,2.08-6.46,1.03-1.12,2.51-1.95,3.84-2.22,2.32-.17,3.63.79,4.22,1.36-.41.65-.81,1.31-1.21,1.97-.68-.84-1.77-1.94-3.8-1.75-2.84.27-3.09,3.74-2.78,6.23.03.25.06.5.09.74,1.94-.22,3.88-.43,5.82-.61-.02-.21-.04-.41-.06-.62-.25-2.41.45-4.79,2.29-6.6,1.15-1.11,2.64-1.77,3.83-1.93,2.15-.13,3.26.74,3.64,1.21.27.29.4.68.3,1.09-.13.34-.42.7-.71.96-.39.24-.73.26-1.13-.06-.71-.69-1.84-1.71-3.35-1.61-.94.06-1.58.61-1.9,1.22-.52.81-.83,2.67-.59,5.2.03.31.06.61.09.92.83-.07,1.65-.14,2.48-.21,2.45-.19,4.38-.41,5.74-.79.25,3.58.5,7.15.73,10.72.12,1.89.34,1.99,2.29,2.03.02.28.03.57.05.85-2.13.15-4.25.33-6.37.53-.02-.29-.04-.57-.07-.86,1.72-.34,1.92-.48,1.78-2.37-.18-2.5-.37-5-.56-7.51-.1-1.37-.21-1.59-1.74-1.47-1.4.1-2.81.22-4.21.34.29,2.96.56,5.93.84,8.89.2,2.18.32,2.23,2.31,2.27.02.29.05.57.07.86-2.11.21-4.21.45-6.31.7-.03-.29-.06-.58-.09-.86,1.8-.4,1.9-.53,1.7-2.54-.3-3.03-.61-6.06-.92-9.09-1.94.19-3.87.39-5.8.62.37,2.99.73,5.98,1.08,8.97.26,2.2.24,2.26,2.37,2.24.03.29.06.58.09.87-2.15.27-4.29.57-6.42.9-.04-.29-.08-.58-.11-.87,1.81-.46,2.03-.61,1.77-2.63-.38-3.06-.77-6.12-1.17-9.18Z"/>
    <path d="m112.83,106.6c0-.28-.01-.56-.02-.84,1.72-.24,1.89-.45,1.86-2.48-.03-1.64-.06-3.28-.09-4.92-.04-2.09-.84-3.49-2.87-3.44-1.26.03-2.44.78-3.35,1.66.1,2.35.19,4.7.28,7.04.08,2.08.26,2.12,2.01,2.22,0,.28.02.56.02.84-2.13.1-4.25.21-6.37.36-.01-.28-.03-.56-.04-.85,1.94-.34,2.11-.46,2.02-2.45-.09-2.07-.19-4.15-.29-6.22-.1-1.96-.32-2.05-1.99-2.24-.01-.26-.03-.53-.04-.79,1.49-.31,2.98-.76,4.25-1.38.03.69.07,1.66.1,2.38.6-.44,1.25-.91,2.04-1.45.84-.56,1.64-.94,2.54-.95,2.48-.04,4.06,1.73,4.09,4.61.02,1.88.04,3.77.06,5.65.02,2.02.19,2.1,1.92,2.25,0,.28,0,.55,0,.83-2.04.03-4.09.09-6.13.16Z"/>
    <path d="m135.11,105.91c-.63.09-2.89.35-4.67.92.03-.61.05-1.28.08-1.89-.55.3-1.34.7-1.89,1.01-1.22.65-2.02.82-2.38.82-2.37-.02-5.48-2.35-5.49-6.49,0-4.12,3.77-7.17,8.06-7,.44.02,1.46.11,2.11.41.05-1.43.09-2.86.14-4.29.06-1.87-.16-1.94-2.42-2.22,0-.25.01-.51.02-.76,1.6-.14,3.84-.42,5.04-.72-.04,1.08-.09,2.36-.14,3.55-.18,4.66-.38,9.32-.61,13.96-.07,1.51.13,1.71,1.23,1.81.32.03.64.06.95.1-.02.27-.03.54-.05.81Zm-4.26-9.93c-.67-1.05-2-1.57-3.21-1.61-1.49-.05-4.14.84-4.17,5.08-.03,3.57,2.17,5.45,4.08,5.51,1.07.02,2.26-.48,3-.98.11-2.66.2-5.33.3-8Z"/>
    <path d="m144.24,94.23c3.92.35,6.55,3.36,6.14,6.97-.52,4.54-4.35,6.38-7.26,6.2-4.1-.26-6.4-3.55-6.22-6.78.26-4.71,4.35-6.67,7.33-6.39Zm-.45.94c-1.91-.17-3.73,1.41-3.95,4.74-.25,3.64,1.23,6.36,3.68,6.53,1.85.13,3.54-1.01,3.93-4.88.34-3.3-.91-6.14-3.66-6.38Z"/>
    <path d="m158.49,108.5c-2.29-.28-4.59-.53-6.88-.75.03-.26.06-.52.1-.78,1.91.02,2.11-.09,2.34-1.91.25-1.93.49-3.86.73-5.8.23-1.84.11-1.94-1.67-2.35.03-.23.05-.47.08-.7,1.55-.05,3-.21,4.55-.6-.12.92-.28,2.14-.4,3.06,1.27-1.31,2.8-2.65,4.37-2.42,1.16.17,1.72.9,1.62,1.59-.1.63-.69,1.16-1.29,1.36-.34.12-.58.06-.8-.17-.4-.48-.74-.81-1.3-.88-.65-.09-1.92.62-2.79,1.95-.23,1.74-.47,3.48-.71,5.21-.25,1.83-.12,1.98,2.17,2.42-.04.26-.08.51-.12.77Z"/>
  </g>
</svg>