<?xml version="1.0" encoding="UTF-8"?>
<svg id="lion_sketch" data-name="lion sketch" xmlns="http://www.w3.org/2000/svg" xmlns:xlink="http://www.w3.org/1999/xlink" viewBox="0 0 173 186">
  <defs>
    <style>
      .cls-1 {
        fill: #ae482e;
      }

      .cls-2 {
        fill: #ffcca2;
      }

      .cls-3 {
        fill: #f9ff73;
      }

      .cls-4 {
        fill: url(#Ikke-navngivet_forløb_58);
        stroke: gold;
        stroke-miterlimit: 10;
      }

      .cls-5 {
        fill: #ef932e;
      }

      .cls-6 {
        fill: #8f3402;
      }
    </style>
    <radialGradient id="Ikke-navngivet_forløb_58" data-name="Ikke-navngivet forløb 58" cx="84" cy="99.5" fx="84" fy="99.5" r="70.43" gradientTransform="translate(-5.18) scale(1.06 1)" gradientUnits="userSpaceOnUse">
      <stop offset="0" stop-color="#8f0801"/>
      <stop offset=".09" stop-color="#960900"/>
      <stop offset=".22" stop-color="#aa0e00"/>
      <stop offset=".38" stop-color="#cc1700"/>
      <stop offset=".56" stop-color="#fa2200"/>
      <stop offset=".57" stop-color="#ff2400"/>
      <stop offset=".97" stop-color="#8f0801"/>
    </radialGradient>
  </defs>
  <path class="cls-4" d="m148.76,102.41v-17.41c0-5-12.74-25-14.65-29.54-1.91-4.54-10.83-6.46-12.33-11.08-1.51-4.62,7.88-12.38,7.88-12.38l-5.31-5s-4.25,5-15.55,4.92-5.68,1.08-12.05.08-12.74,8-12.74,8h-.06s-6.38-8.99-12.75-7.99-.74-.15-12.05-.07c-11.31.09-15.56-4.91-15.56-4.91l-5.3,5s9.39,7.75,7.89,12.37c-1.5,4.62-10.41,6.55-12.32,11.09-1.91,4.54-14.63,24.55-14.62,29.55,0,5,.02,17.41.02,17.41,0,0-9.56-2.4-7.43,6.6,2.13,9,12.76,19.99,12.76,19.99,0,0,4.18-3,7.4,0s13.85,9.99,13.85,12.99c0,3-5.3,7-2.11,11,3.12,3.92,38.83,18.35,40.29,18.94v.03s.03-.01.03-.01c0,0,.03.01.03.01v-.03c1.46-.59,37.15-15.05,40.27-18.97,3.19-4-2.12-8-2.12-11s10.62-10,13.84-13c3.22-3,7.4,0,7.4,0,0,0,10.62-11,12.74-20s-7.43-6.59-7.43-6.59Z"/>
  <path class="cls-5" d="m146.64,90.48s-5.06-1-6.78,0-4.9,7-5.96,7-5.31.82-6.37,2.41-9.56,15.59-11.68,17.59-14.86,10-14.86,10l-16.99-25.33s-6.37-2.67-7.43-1.67-46.71,13-46.71,13l1.06,9.52,26.54,26.48,5.31-5s1.18-.42,2.71-.94c2.58-.88,6.18-2.06,6.84-2.06,1.06,0,6.37,6,6.37,6l9.56,10,19.11-5,31.85-50s7.43-3.69,7.43-5.34v-6.66Z"/>
  <path class="cls-6" d="m109.48,60s-4.38-12-8.62-13-19.11-5-24.42-2-15.93,10-19.11,15-2.12,16-4.25,18-12.74,21-12.74,21l-8.49,10-6.37,9,18.05-8-4.25,11,12.08-9.5-.4,8.5,11.68-10,2.03,11,11.77-14h6.37l9.56,15,8.49,9s12.74-9,11.68-15-5.31-15-5.31-15l-11.55-5s-11.81-19-10.75-21c.53-1,2.41-4.53,4.14-7.8l3.29-6.2,17.12-1Z"/>
  <polygon class="cls-3" points="105.1 96.92 104.39 96.15 103.69 95.38 106.36 93.88 109.03 92.38 107.07 94.65 105.1 96.92"/>
  <polygon class="cls-3" points="112.49 90.13 113.32 90.77 114.15 91.41 111.79 93.33 109.44 95.24 110.96 92.68 112.49 90.13"/>
  <polygon class="cls-3" points="108.24 87.13 109.07 87.77 109.91 88.41 107.55 90.33 105.19 92.24 106.71 89.68 108.24 87.13"/>
  <path class="cls-5" d="m88.12,63.48l-1.06-3,2.31-3.8c.75-1.24,2.48-1.59,3.71-.76l3.12,2.11s11.42-.67,13.35,1.39,10.42,11.06,10.42,13.06,7.43,10,7.43,10l-5.31,5s0,6-3.19,6-8.49-4-9.56-5-6.37-1-7.43,2,4.25,6.36,5.31,6.68c.46.14,1.13.98,1.74,1.89.67,1.01-.15,2.31-1.41,2.21l-8.31-.65c-.99-.08-1.9-.57-2.46-1.35l-12.18-16.76c-.48-.66-.74-1.44-.74-2.24v-12.12c0-1.34.73-2.58,1.94-3.29l2.31-1.36Z"/>
  <path class="cls-1" d="m111.07,72.5c-1.52,1.48-4.07,1.47-5.71-.02s-1.73-3.89-.21-5.37,7.43,3.92,5.92,5.39Z"/>
  <ellipse class="cls-2" cx="107.89" cy="71.5" rx="1.59" ry="1.5"/>
  <polygon class="cls-6" points="120.9 82.02 124.78 78.37 128.58 81.96 124.71 85.61 120.9 82.02"/>
</svg>