<?xml version="1.0" encoding="UTF-8"?>
<svg id="badger_sketch" data-name="badger sketch" xmlns="http://www.w3.org/2000/svg" xmlns:xlink="http://www.w3.org/1999/xlink" viewBox="0 0 173 186">
  <defs>
    <style>
      .cls-1, .cls-2 {
        fill: #fff;
      }

      .cls-3 {
        fill: url(#Ikke-navngivet_forløb_768);
      }

      .cls-3, .cls-2 {
        stroke: #000;
        stroke-miterlimit: 10;
      }
    </style>
    <radialGradient id="Ikke-navngivet_forløb_768" data-name="Ikke-navngivet forløb 768" cx="84.1" cy="94.92" fx="84.1" fy="94.92" r="70.43" gradientTransform="translate(-5.19) scale(1.06 1)" gradientUnits="userSpaceOnUse">
      <stop offset="0" stop-color="#da8a10"/>
      <stop offset=".53" stop-color="#e1ad01"/>
      <stop offset=".68" stop-color="#dfa504"/>
      <stop offset=".91" stop-color="#db900d"/>
      <stop offset=".97" stop-color="#da8a10"/>
    </radialGradient>
  </defs>
  <path class="cls-3" d="m148.87,97.83v-17.41c0-5-12.74-25-14.65-29.54-1.91-4.54-10.83-6.46-12.33-11.08-1.51-4.62,7.88-12.38,7.88-12.38l-5.31-5s-4.25,5-15.55,4.92-5.68,1.08-12.05.08-12.74,8-12.74,8h-.06s-6.38-8.99-12.75-7.99-.74-.15-12.05-.07c-11.31.09-15.56-4.91-15.56-4.91l-5.3,5s9.39,7.75,7.89,12.37c-1.5,4.62-10.41,6.55-12.32,11.09-1.91,4.54-14.63,24.55-14.62,29.55,0,5,.02,17.41.02,17.41,0,0-9.56-2.4-7.43,6.6,2.13,9,12.76,19.99,12.76,19.99,0,0,4.18-3,7.4,0s13.85,9.99,13.85,12.99c0,3-5.3,7-2.11,11,3.12,3.92,38.83,18.35,40.29,18.94v.03s.03-.01.03-.01c0,0,.03.01.03.01v-.03c1.46-.59,37.15-15.05,40.27-18.97,3.19-4-2.12-8-2.12-11s10.62-10,13.84-13c3.22-3,7.4,0,7.4,0,0,0,10.62-11,12.74-20s-7.43-6.59-7.43-6.59Z"/>
  <path d="m95.93,123.73s4.61,5.97,1.12,9.74-4.09,5.93-4.09,5.93l12.09.64s.6-2.16,1.35-8.45c.75-6.29-.56-7.27-2.02-8.91s-2.67-2.98-2.67-2.98l-5.78,4.03Z"/>
  <path d="m59.76,63.14s-3.34,3.78-6.65,7.98c-2.59,3.28-5.15,6.83-6.09,9.02-2.12,5,0,17.88,0,17.88l4.49,7.12,16.74,12,19.11,9,23.86,4.24-2.84,10.36,11.78-.6v-10.41c0-.6-.12-1.18-.37-1.73-.37-.83-.99-2.39-1.64-4.86-1.06-4,8.49-4,9.56-7s-5.31-18-8.49-21-24.42-7-25.48-7-12.74,2-13.8-2c-.82-3.08,2.14-7.94,3.55-10.01.42-.62,1.12-1.02,1.91-1.08l10.56-.83c.61-.05,1.14-.39,1.41-.91.83-1.65,2.5-5.16,1.69-5.16-1.02,0-6.7-1.14-9.56-3-1.89-1.23-.88-1.7-3.3-4-3.97-3.78-9.35-5.04-12.63-5-.38,0-1.11.02-1.96.1-2.73.25-5.47.9-5.47.9,0,0,2.12-5-1.06-5s-8.49,2-6.37,5,3.19,3,3.19,3l-2.12,3Z"/>
  <path d="m71.18,51.61l.67,3.95,3.95-.16s2.01-2.76,1.84-3.75c-.05-.29-.67-3.95-4.69-2.33-2.76,1.11-1.76,2.29-1.76,2.29Z"/>
  <path d="m47.54,95.14s-7.53,3-10.88-1-5.58-5-5.58-5l-3.35,11s2.23,1,8.94,3,8.07,1,10.18,0,3.84-1.84,3.84-1.84l-3.13-6.16Z"/>
  <path d="m51.92,103.9s-2,7.14-7.31,6.97-7.46.76-7.46.76l7.11,9.23s2.16-.93,7.8-4.36c5.65-3.42,5.63-5,6.06-7.1s.77-3.83.77-3.83l-6.97-1.68Z"/>
  <path class="cls-1" d="m64.43,56.64s3.19,2,7.43,4,5.31,3,7.43,5,7.43,3,9.56,3,4.25-2,4.25-2l-5.73-2.5s-5.68-5.7-6.88-6.6-3.31-2.13-5.44-2.01-5.31.12-5.31.12"/>
  <path class="cls-1" d="m81.41,87.64c-.26,0,.62,1.25.72,1.47,1.48,3.27,7.37,10.3,9.89,10.9,2.65.63,15.39,4.63,17.52,3.63s4.83-5.11,5.31-6c.53-1-1.41-3.8-1.7-3.87-2.73-1.43-6.64-3.11-11.57-4.13-3.75-.78-6.37-2-9.56-2,0,0-10.65.21-10.62,0Z"/>
  <rect x="96.28" y="66.64" width="3.19" height="4"/>
  <path class="cls-2" d="m67.92,60.93c1.3-1.65,3.84-1.95,5.66-.67s2.25,3.65.94,5.3-7.91-2.98-6.6-4.63Z"/>
  <ellipse cx="73.38" cy="62" rx="2.12" ry="2"/>
  <polygon class="cls-1" points="30.64 90.55 30.17 92.12 32.45 92.12 30.64 90.55"/>
  <polygon class="cls-1" points="29.9 92.99 29.43 94.54 31.97 94 29.9 92.99"/>
  <polygon class="cls-1" points="38.18 112.97 39.05 114.11 41.01 112.38 38.18 112.97"/>
  <polygon class="cls-1" points="39.6 114.81 40.24 115.65 41.53 114 39.6 114.81"/>
  <polygon class="cls-1" points="94.03 139.46 95.67 137 95.67 139.55 94.03 139.46"/>
  <polygon class="cls-1" points="96.92 139.62 97.8 137 98.71 139.71 96.92 139.62"/>
  <polygon class="cls-1" points="109.71 140.67 110.67 138.36 111.67 140.57 109.71 140.67"/>
  <polygon class="cls-1" points="112.71 140.52 113.32 138.36 114.02 140.45 112.71 140.52"/>
  <path class="cls-1" d="m88.8,74.77l-7.84-3.68c-.64-.3-1.32-.52-2.02-.66l-17.25-3.43s-3.43-1.36-5.31,0-6.06,7.77-6.06,7.77c0,0-4.32,4.13.34,9.68s16.89,13.98,20.33,11.26,6.66-6.14,6.64-9.43,2.15-9.5,3.72-10.39,7.44-1.12,7.44-1.12Z"/>
</svg>