<?xml version="1.0" encoding="UTF-8"?>
<svg id="housename_banner" data-name="housename banner" xmlns="http://www.w3.org/2000/svg" xmlns:xlink="http://www.w3.org/1999/xlink" viewBox="0 0 189 170">
  <defs>
    <style>
      .cls-1 {
        fill: url(#Ikke-navngivet_forløb_403);
      }

      .cls-1, .cls-2, .cls-3 {
        stroke: gold;
        stroke-miterlimit: 10;
      }

      .cls-2 {
        fill: url(#Ikke-navngivet_forløb_479-2);
      }

      .cls-3 {
        fill: url(#Ikke-navngivet_forløb_479);
      }
    </style>
    <linearGradient id="Ikke-navngivet_forløb_403" data-name="Ikke-navngivet forløb 403" x1="-18.32" y1="-161.22" x2="137.68" y2="-161.22" gradientTransform="translate(39.56 257.59) rotate(-3.16)" gradientUnits="userSpaceOnUse">
      <stop offset="0" stop-color="#ffebca"/>
      <stop offset=".52" stop-color="#ffebcb"/>
      <stop offset=".57" stop-color="#ffebcd"/>
      <stop offset=".97" stop-color="#ffebcd"/>
    </linearGradient>
    <linearGradient id="Ikke-navngivet_forløb_479" data-name="Ikke-navngivet forløb 479" x1="11.85" y1="75.99" x2="32.51" y2="75.99" gradientUnits="userSpaceOnUse">
      <stop offset="0" stop-color="#d4c082"/>
      <stop offset=".46" stop-color="#d5c183"/>
      <stop offset=".63" stop-color="#d8c48a"/>
      <stop offset=".75" stop-color="#dfcb96"/>
      <stop offset=".84" stop-color="#e9d5a7"/>
      <stop offset=".92" stop-color="#f5e1bd"/>
      <stop offset=".97" stop-color="#ffebcd"/>
    </linearGradient>
    <linearGradient id="Ikke-navngivet_forløb_479-2" data-name="Ikke-navngivet forløb 479" x1="12776.2" y1="2076.37" x2="12806" y2="2076.37" gradientTransform="translate(6727.88 -2242.47) rotate(148.64) scale(.53 .68)" xlink:href="#Ikke-navngivet_forløb_479"/>
  </defs>
  <g>
    <path class="cls-1" d="m11.58,83l3.3,38.91s49.76-15.17,77.87-16.26,76.24-1.54,76.24-1.54l-8.35-39.11-15.79,1.41-52.94,2.9c-2.27.12-4.53.38-6.77.78l-73.56,12.91Z"/>
    <polygon class="cls-3" points="32.51 69.67 26.77 81.15 11.85 82.3 32.51 69.67"/>
    <polygon class="cls-2" points="156.5 117.75 156.3 105.26 166.83 104.11 156.5 117.75"/>
  </g>
  <g>
    <path d="m46.45,83.11c-2.43.8-2.63,1.03-2.02,3.71.98,4.28,1.95,8.56,2.9,12.83.6,2.69.87,2.71,3.24,2.42.06.3.13.59.19.89-2.5.62-5,1.28-7.48,1.98-.07-.3-.14-.6-.21-.9,2.24-.96,2.45-1.08,1.83-3.77-.49-2.13-.99-4.27-1.49-6.41-3.3.83-6.57,1.72-9.83,2.67.57,2.15,1.14,4.3,1.71,6.45.71,2.68.95,2.7,3.31,2.34.08.3.15.6.23.9-2.46.73-4.91,1.5-7.35,2.3-.08-.3-.17-.6-.25-.91,2.15-1.02,2.38-1.18,1.64-3.9-1.17-4.32-2.36-8.64-3.56-12.96-.75-2.71-1.07-2.81-3.52-2.37-.09-.3-.17-.6-.26-.91,2.62-.77,5.26-1.51,7.9-2.21.08.3.16.6.24.9-2.31.86-2.54,1.17-1.82,3.85.46,1.71.92,3.42,1.38,5.13,3.28-.95,6.57-1.83,9.88-2.66-.4-1.7-.8-3.4-1.2-5.1-.63-2.66-1.02-2.81-3.45-2.45-.07-.3-.15-.6-.22-.9,2.67-.66,5.35-1.28,8.04-1.86.07.3.13.6.2.89Z"/>
    <path d="m65.38,98.99c-1.33.48-2.8,1.2-4.15,1.97-.09-.51-.29-1.64-.43-2.43-1.29,1.74-2.34,3.02-3.89,3.37-1.88.42-3.77-.48-4.49-3.95-.42-2.06-.85-4.12-1.28-6.18-.36-1.72-.64-1.86-1.4-1.86-.29,0-.57.02-.86.02-.06-.28-.12-.55-.18-.83,1.25-.35,3.13-1.08,4.1-1.48.12,1.04.43,2.56.85,4.66.29,1.44.58,2.88.86,4.32.56,2.8,2.01,3.29,3.29,3.01,1.05-.23,2.01-.96,2.8-2.16-.44-2.45-.88-4.91-1.33-7.37-.31-1.71-.71-1.86-1.74-1.83-.32.02-.65.04-.97.06-.05-.28-.1-.55-.16-.83,1.88-.47,3.9-1.19,4.56-1.44.62,3.53,1.23,7.05,1.83,10.57.27,1.58.53,1.75,1.63,1.6.27-.04.54-.08.81-.12.05.29.09.59.14.88Z"/>
    <path d="m86.17,93.47c.17,1.87.38,2,2.31,1.98.02.29.05.57.07.86-2.09.22-4.18.46-6.26.73-.03-.29-.06-.58-.09-.86,1.71-.4,1.88-.57,1.69-2.45-.53-5.41-1.08-10.83-1.66-16.25-.64-.78-1.85-1.21-2.97-1.1-2.73.27-2.66,3.78-2.38,6.04.06.5.12.99.18,1.49,1.08-.13,2.15-.25,3.23-.37.21.26.15,1.05-.16,1.3-.97.11-1.94.22-2.91.34.36,2.99.72,5.98,1.07,8.97.26,2.2.38,2.24,2.34,2.23.03.29.06.58.09.86-2.07.28-4.14.58-6.2.9-.04-.29-.08-.58-.11-.87,1.76-.46,1.86-.6,1.61-2.62-.38-3.06-.77-6.12-1.17-9.18-1.91.25-3.81.51-5.71.8.45,3.02.89,6.03,1.33,9.05.32,2.22.3,2.28,2.4,2.2.04.29.08.58.12.87-2.11.34-4.21.71-6.3,1.1-.05-.29-.09-.59-.14-.88,1.77-.52,1.98-.68,1.67-2.72-.47-3.08-.95-6.17-1.43-9.26-.7.11-1.41.23-2.11.34-.06-.11-.12-.22-.18-.33.17-.35.33-.7.5-1.05.53-.09,1.06-.17,1.58-.25-.38-2.42.19-4.83,1.84-6.75.98-1.16,2.42-2.05,3.73-2.36,2.3-.24,3.61.69,4.21,1.26-.38.67-.76,1.35-1.14,2.03-.7-.83-1.81-1.91-3.81-1.66-2.84.36-2.95,3.85-2.57,6.42.04.24.07.48.11.72,1.91-.28,3.82-.55,5.74-.79-.53-4.05.46-5.63,1.86-7.23,1.2-1.45,2.7-2.1,3.72-2.19.93-.12,1.95.01,2.65.36.46-.13.81-.38,1.19-.66.12.03.24.06.36.1.04,1.08.12,2.2.23,3.27.51,5.22,1,10.42,1.47,15.62Z"/>
    <path d="m100.53,92.76c-1.79,2.51-3.78,3.18-4.71,3.25-3.52.29-5.89-2.54-6.18-6.06-.16-2.08.4-4.07,1.54-5.5,1.16-1.53,2.79-2.42,4.38-2.51,2.67-.14,4.78,2.05,4.88,4.46,0,.6-.08.88-.56,1.02-.6.15-4.42.62-7.95,1.02.21,4.1,2.71,5.56,4.78,5.41,1.2-.09,2.28-.67,3.33-1.76.17.22.33.44.5.67Zm-5.64-9.63c-1.4.08-2.68,1.48-2.92,3.99,1.68-.13,3.36-.24,5.12-.43.54-.03.71-.19.69-.64-.05-1.6-1.19-3.01-2.9-2.91Z"/>
    <path d="m102.17,82.65c1.43-.26,3-.81,4.4-1.4.02.72.04,1.67.05,2.39.09-.07,2.51-1.47,2.64-1.53.73-.39,1.38-.6,1.78-.6,3.4,0,5.42,2.76,5.36,5.67-.1,4.46-3.7,7.27-7.5,8.12-.88,0-1.67-.24-2.08-.46.02,1.34.03,2.68.05,4.02.02,2.2.25,2.36,2.45,2.48,0,.28,0,.55,0,.83-2.25.09-4.49.21-6.73.36,0-.28-.01-.56-.02-.84,1.84-.33,2.07-.48,2.03-2.49-.09-4.53-.2-9.07-.32-13.61-.05-1.8-.12-1.92-2.07-2.13,0-.27-.02-.54-.03-.81Zm4.61,10.1c.69.66,1.84,1.1,2.81,1.08,2.55-.07,4.23-2.23,4.26-5.53.03-3.18-1.89-5-4.06-4.99-1.07,0-2.34.71-3.15,1.33.05,2.71.1,5.41.14,8.12Z"/>
    <path d="m132.72,94.59c-1.44.12-3.06.41-4.59.78.03-.46.1-1.49.15-2.21-1.69,1.23-3.04,2.11-4.65,2.07-1.96-.04-3.62-1.25-3.51-4.43.06-1.89.12-3.78.18-5.67.05-1.58-.19-1.76-.96-1.93-.29-.06-.57-.11-.86-.17,0-.25.01-.51.02-.76,1.32-.03,3.36-.25,4.42-.39-.13.93-.18,2.33-.26,4.25-.05,1.32-.11,2.64-.16,3.96-.11,2.56,1.22,3.31,2.55,3.35,1.1.03,2.22-.39,3.29-1.26.15-2.23.29-4.47.43-6.7.1-1.55-.26-1.78-1.3-1.98-.33-.06-.65-.11-.98-.17.01-.25.03-.5.04-.75,1.98.01,4.16-.16,4.88-.23-.22,3.21-.46,6.41-.7,9.6-.11,1.43.11,1.64,1.23,1.76.28.02.55.05.83.08-.02.27-.05.53-.07.8Z"/>
    <path d="m139.53,84.4c-.28,2.72-.56,5.44-.86,8.15-.22,2.03-.25,2.05,1.83,2.45-.03.26-.06.52-.09.78-2.17-.18-4.33-.34-6.5-.47.02-.26.05-.53.07-.79,1.91-.05,2.13-.14,2.31-1.98.27-2.78.54-5.57.8-8.36-.73-.06-1.46-.12-2.19-.18-.03-.11-.07-.22-.1-.32.25-.27.5-.53.75-.8.55.05,1.09.09,1.64.14.2-2.19,1.35-4.15,3.46-5.44,1.26-.78,2.92-1.22,4.3-1.19,2.36.32,3.45,1.44,3.91,2.07-.55.49-1.09.99-1.64,1.49-.49-.88-1.35-2.08-3.41-2.33-2.92-.34-3.88,2.66-4.18,5.63,1.07.1,2.15.21,3.22.33-.04.38-.09.77-.13,1.15-1.07-.11-2.14-.22-3.21-.32Zm2.57-.91c1.16.12,2.31.25,3.47.39.35-2.76,1.34-4.7,3.57-5.95,1.23-.74,2.51-1.04,3.74-.99,1.11.2,1.99.7,2.45,1.31.21.31.12.7-.06.98-.13.21-.43.47-.78.61-.35.17-.63.1-.88-.19-.55-.62-1.31-1.24-2.36-1.39-.86-.12-1.34.12-1.76.57-.48.47-1.03,1.73-1.31,4.07-.06.43-.11.85-.17,1.28,1.1.14,2.19.28,3.29.43.15.28-.11.94-.48,1.09-.99-.13-1.98-.26-2.97-.38-.36,2.68-.73,5.35-1.11,8.02-.28,2,.04,2.05,2.26,2.53-.04.26-.08.51-.12.77-2.29-.26-4.58-.5-6.86-.7.03-.26.07-.52.1-.78,1.86,0,2-.09,2.24-1.9.36-2.74.71-5.48,1.06-8.23-1.15-.13-2.3-.26-3.46-.38.04-.38.09-.77.13-1.15Z"/>
  </g>
</svg>