<?xml version="1.0" encoding="UTF-8"?>
<svg id="bloodstatus" xmlns="http://www.w3.org/2000/svg" viewBox="0 0 173 186">
  <defs>
    <style>
      .cls-1 {
        fill: #fff;
        stroke: #000;
        stroke-width: .25px;
      }

      .cls-1, .cls-2 {
        stroke-miterlimit: 10;
      }

      .cls-2 {
        fill: #d4145a;
        stroke: #fff;
      }

      .cls-3 {
        fill: #e6ffff;
      }
    </style>
  </defs>
  <g>
    <path class="cls-3" d="m86.09,167.28c-.66,0-1.31-.01-1.98-.04-25.42-.99-46.27-21.67-47.46-47.07-.99-21.03,11.44-40.44,30.92-48.3,2.14-.86,3.52-2.88,3.52-5.13v-25.96c0-2.48,2.02-4.5,4.5-4.5h20c2.48,0,4.5,2.02,4.5,4.5v25.57c0,2.3,1.42,4.33,3.62,5.17,19.07,7.27,31.88,25.86,31.88,46.27,0,27.29-22.21,49.5-49.5,49.5Z"/>
    <path d="m95.6,36.78c2.21,0,4,1.79,4,4v25.57c0,2.51,1.55,4.72,3.94,5.63,9.18,3.5,17.03,9.62,22.7,17.7,5.79,8.26,8.86,17.98,8.86,28.1,0,27.02-21.98,49-49,49-.65,0-1.31-.01-1.96-.04-25.16-.98-45.8-21.45-46.98-46.59-.98-20.82,11.32-40.03,30.61-47.82,2.33-.94,3.83-3.14,3.83-5.59v-25.96c0-2.21,1.79-4,4-4h20m0-1h-20c-2.76,0-5,2.24-5,5v25.96c0,2.07-1.29,3.89-3.21,4.67-19.05,7.69-32.27,26.76-31.24,48.79,1.21,25.71,22.22,46.54,47.94,47.54.67.03,1.33.04,2,.04,27.61,0,50-22.39,50-50,0-21.33-13.37-39.56-32.2-46.73-1.97-.75-3.3-2.6-3.3-4.7v-25.57c0-2.76-2.24-5-5-5h0Z"/>
  </g>
  <path class="cls-1" d="m112.37,97.82c-.02-.41,0-.6.03-.8.63-3.06,3.87-4.89,6.85-3.76l2.13.81.86.33c1.11.93,2.44,2.22,3.72,3.94.81,1.08,1.44,2.13,1.94,3.08.34.65.43,1.41.25,2.13-.59,2.37-1.19,4.74-1.78,7.11-.16.62-.51,1.18-1,1.59l-13.85,11.52c-.78,1.15-2.58.47-2.4-.91,1.88-4.86,2.38-8.35,2.46-10.74.04-1.12.04-3.75,1.62-4.73.9-.55,1.53-.11,1.9-.62.91-1.24-2.45-4.43-2.72-8.94Z"/>
  <path class="cls-2" d="m86.15,137.78h0c-8.8,0-15.17-8.42-12.77-16.89l10.75-37.93c.43-1.51,2.57-1.53,3.02-.02l11.44,38.13c2.5,8.33-3.74,16.71-12.43,16.71Z"/>
</svg>