<?xml version="1.0" encoding="UTF-8"?>
<svg id="raven_sketch" data-name="raven sketch" xmlns="http://www.w3.org/2000/svg" xmlns:xlink="http://www.w3.org/1999/xlink" viewBox="0 0 173 186">
  <defs>
    <style>
      .cls-1 {
        fill: #009;
      }

      .cls-1, .cls-2, .cls-3, .cls-4 {
        stroke: #cd7f32;
        stroke-miterlimit: 10;
      }

      .cls-2 {
        fill: url(#Ikke-navngivet_forløb_48);
      }

      .cls-3 {
        fill: none;
      }
    </style>
    <radialGradient id="Ikke-navngivet_forløb_48" data-name="Ikke-navngivet forløb 48" cx="86.7" cy="100.02" fx="86.7" fy="100.02" r="70.43" gradientTransform="translate(-5.35) scale(1.06 1)" gradientUnits="userSpaceOnUse">
      <stop offset="0" stop-color="#4139e1"/>
      <stop offset=".51" stop-color="#4167e1"/>
      <stop offset=".53" stop-color="#4169e1"/>
      <stop offset=".65" stop-color="#4161e1"/>
      <stop offset=".83" stop-color="#414ce1"/>
      <stop offset=".97" stop-color="#4139e1"/>
    </radialGradient>
  </defs>
  <path class="cls-2" d="m151.46,102.93v-17.41c0-5-12.74-25-14.65-29.54-1.91-4.54-10.83-6.46-12.33-11.08-1.51-4.62,7.88-12.38,7.88-12.38l-5.31-5s-4.25,5-15.55,4.92-5.68,1.08-12.05.08-12.74,8-12.74,8h-.06s-6.38-8.99-12.75-7.99-.74-.15-12.05-.07c-11.31.09-15.56-4.91-15.56-4.91l-5.3,5s9.39,7.75,7.89,12.37c-1.5,4.62-10.41,6.55-12.32,11.09-1.91,4.54-14.63,24.55-14.62,29.55,0,5,.02,17.41.02,17.41,0,0-9.56-2.4-7.43,6.6,2.13,9,12.76,19.99,12.76,19.99,0,0,4.18-3,7.4,0s13.85,9.99,13.85,12.99c0,3-5.3,7-2.11,11,3.12,3.92,38.83,18.35,40.29,18.94v.03s.03-.01.03-.01c0,0,.03.01.03.01v-.03c1.46-.59,37.15-15.05,40.27-18.97,3.19-4-2.12-8-2.12-11s10.62-10,13.84-13c3.22-3,7.4,0,7.4,0,0,0,10.62-11,12.74-20s-7.43-6.59-7.43-6.59Z"/>
  <g>
    <path class="cls-1" d="m142.02,70.36l-38.84-18.21s-.78,2.87.78,12.93c1.54,10.06-3.86,17.24-2.71,18.79,1.16,1.54,6.57,10.66,5.02,14.97-1.38,3.86-8.32,5.99-9.78,6.4v-.22l-1.84-4.17,7.62-2.16-7.62-2.87-.76-2.88-12.2-.71-4.28,12.13v.79s-8.49-2.15-10.04-6.46c-1.54-4.31,3.86-13.43,5.02-14.97,1.16-1.55-4.25-8.73-2.71-18.79,1.55-10.06.78-12.93.78-12.93l-38.84,18.21c-.57,2.36-1.38,6.46-1.39,11.64-.01,3.74.39,8.05,1.61,12.69.41,1.58.92,3.21,1.55,4.87.68,1.82,1.44,3.53,2.27,5.14,4.76,9.38,11.36,15.2,14.71,17.84,1.79.54,3.6,1.08,5.39,1.61,7,2.1,13.99,4.2,21,6.3h.64v.19c-.21-.06-.42-.13-.64-.19h-.42l4.58,23.7h12.96l3.81-23.7h-.34c6.84-2.05,13.69-4.1,20.51-6.14,1.79-.54,3.59-1.07,5.38-1.61,3.35-2.65,9.96-8.47,14.73-17.85.82-1.61,1.59-3.32,2.27-5.14.62-1.66,1.13-3.28,1.54-4.87,1.22-4.64,1.64-8.95,1.62-12.69-.01-5.19-.83-9.27-1.4-11.64Zm-58.4,26.87l.07-2.78,7.65,3.4-7.79,2.16.06-2.78Z"/>
    <path class="cls-1" d="m77.42,130.3v.19c-.21-.06-.42-.13-.64-.19h.64Z"/>
    <line class="cls-3" x1="30.24" y1="81.85" x2="55.77" y2="73.55"/>
    <line class="cls-3" x1="31.85" y1="94.54" x2="55.77" y2="84.92"/>
    <line class="cls-3" x1="35.66" y1="104.55" x2="56.53" y2="95.82"/>
    <line class="cls-3" x1="43" y1="114.85" x2="58.82" y2="105.87"/>
    <line class="cls-3" x1="55.77" y1="124.01" x2="65.01" y2="114.85"/>
  </g>
  <g>
    <line class="cls-3" x1="143.42" y1="79" x2="117.89" y2="70.7"/>
    <line class="cls-3" x1="141.81" y1="91.69" x2="117.89" y2="82.07"/>
    <line class="cls-3" x1="137.99" y1="101.7" x2="117.12" y2="92.97"/>
    <line class="cls-3" x1="130.65" y1="112" x2="114.84" y2="103.02"/>
    <line class="cls-3" x1="117.89" y1="121.16" x2="108.64" y2="112"/>
  </g>
  <polygon class="cls-4" points="91.35 97.85 83.56 100.01 83.62 97.23 83.7 94.45 91.35 97.85"/>
  <polygon class="cls-3" points="82.79 139.64 81.82 136.5 80.61 133.92 82.67 135.91 85.03 134.31 83.45 136.56 82.79 139.64"/>
  <polygon class="cls-3" points="92.42 139.64 93.4 136.49 94.61 133.9 92.54 135.9 90.18 134.29 91.76 136.55 92.42 139.64"/>
</svg>