<?xml version="1.0" encoding="UTF-8"?>
<svg id="housename_banner" data-name="housename banner" xmlns="http://www.w3.org/2000/svg" xmlns:xlink="http://www.w3.org/1999/xlink" viewBox="0 0 189 164">
  <defs>
    <style>
      .cls-1 {
        fill: url(#Ikke-navngivet_forløb_403);
      }

      .cls-1, .cls-2, .cls-3 {
        stroke: gold;
        stroke-miterlimit: 10;
      }

      .cls-2 {
        fill: url(#Ikke-navngivet_forløb_479-2);
      }

      .cls-3 {
        fill: url(#Ikke-navngivet_forløb_479);
      }
    </style>
    <linearGradient id="Ikke-navngivet_forløb_403" data-name="Ikke-navngivet forløb 403" x1="-26.68" y1="-160.74" x2="129.32" y2="-160.74" gradientTransform="translate(51.88 256.64) rotate(-3.16)" gradientUnits="userSpaceOnUse">
      <stop offset="0" stop-color="#ffebca"/>
      <stop offset=".52" stop-color="#ffebcb"/>
      <stop offset=".57" stop-color="#ffebcd"/>
      <stop offset=".97" stop-color="#ffebcd"/>
    </linearGradient>
    <linearGradient id="Ikke-navngivet_forløb_479" data-name="Ikke-navngivet forløb 479" x1="15.85" y1="75.99" x2="36.51" y2="75.99" gradientUnits="userSpaceOnUse">
      <stop offset="0" stop-color="#d4c082"/>
      <stop offset=".46" stop-color="#d5c183"/>
      <stop offset=".63" stop-color="#d8c48a"/>
      <stop offset=".75" stop-color="#dfcb96"/>
      <stop offset=".84" stop-color="#e9d5a7"/>
      <stop offset=".92" stop-color="#f5e1bd"/>
      <stop offset=".97" stop-color="#ffebcd"/>
    </linearGradient>
    <linearGradient id="Ikke-navngivet_forløb_479-2" data-name="Ikke-navngivet forløb 479" x1="12959.47" y1="1559.13" x2="12989.27" y2="1559.13" gradientTransform="translate(6632.72 -2593.28) rotate(148.64) scale(.53 .68)" xlink:href="#Ikke-navngivet_forløb_479"/>
  </defs>
  <g>
    <path class="cls-1" d="m15.58,83l3.3,38.91s49.76-15.17,77.87-16.26,76.24-1.54,76.24-1.54l-8.35-39.11-15.79,1.41-52.94,2.9c-2.27.12-4.53.38-6.77.78l-73.56,12.91Z"/>
    <polygon class="cls-3" points="36.51 69.67 30.77 81.15 15.85 82.3 36.51 69.67"/>
    <polygon class="cls-2" points="160.5 117.75 160.3 105.26 170.83 104.11 160.5 117.75"/>
  </g>
  <g>
    <path d="m52.17,103.92c-.36.1-.67.14-1.04.21-2.06.38-3.29.08-5.05-1.58-1.47-1.35-3.04-3.09-4.42-4.48-.86-.87-1.29-.96-2.74-.54-.33.1-.66.19-.99.29.5,1.69,1,3.38,1.49,5.07.8,2.75,1.15,2.81,3.43,2.41.08.3.17.6.25.9-2.44.73-4.88,1.49-7.3,2.29-.09-.3-.19-.6-.28-.91,2.18-1.03,2.34-1.21,1.51-3.96-1.3-4.3-2.62-8.6-3.95-12.9-.85-2.75-1.21-2.76-3.63-2.37-.1-.3-.19-.6-.29-.91,2.51-.74,5.03-1.44,7.57-2.12,2.17-.58,3.73-.65,5.08-.13,1.46.53,2.64,1.78,3.17,3.75.73,2.77-.41,4.9-2.24,6.51.8.86,2.61,2.68,3.84,3.9,1.49,1.42,2.23,2.08,3.08,2.71.99.73,1.72.91,2.4.94.04.31.07.62.11.93Zm-13.2-7.6c1.49-.42,2.36-.94,2.89-1.81.86-1.24.98-2.65.49-4.38-.95-3.44-3.42-4.17-5.7-3.56-.86.23-1.32.5-1.47.75-.2.3-.19.65.06,1.49.79,2.64,1.58,5.28,2.36,7.91.46-.13.91-.26,1.37-.4Z"/>
    <path d="m62.52,101.55c-.42.09-1.09-.02-1.44-.31-.45-.33-.72-.74-.98-1.28-.95,1.11-2.05,2.62-2.91,2.83-1.97.48-3.84-1.04-4.34-3.09-.38-1.57.14-2.78,1.57-3.76,1.59-1.09,3.57-2.39,4.09-3.1-.05-.21-.09-.43-.14-.64-.49-2.26-1.84-3.35-3.38-3.02-.68.15-1.01.59-1.21,1.04-.22.52-.25,1.27-.3,2.26-.02.55-.23.83-.67.93-.55.13-1.43-.34-1.62-1.11-.11-.45.17-.92.65-1.51.68-.87,2.11-2.44,3.71-3.18.89-.19,1.87-.09,2.68.34,1.24.74,1.94,1.73,2.29,3.39.43,2.05.86,4.09,1.28,6.14.3,1.46.88,1.8,1.38,1.69.34-.07.68-.31.95-.56.15.28.31.55.46.83-.7.7-1.39,1.4-2.08,2.11Zm-3.78-7.59c-.56.49-1.79,1.46-2.38,1.94-.97.79-1.48,1.56-1.2,2.74.4,1.69,1.69,2.19,2.59,1.98.73-.17,1.63-.92,2.06-1.68-.32-1.5-.75-3.47-1.07-4.97Z"/>
    <path d="m75.88,85.3c-1.59.45-1.76.74-2.23,2.74-.58,2.66-1.56,7.12-2.3,11.66-.27.05-.55.1-.82.16-1.82-3.4-3.92-6.89-6.03-10.34-1.04-1.71-1.32-1.86-2.91-1.82-.06-.29-.12-.57-.18-.86,2.02-.39,4.05-.75,6.08-1.1.05.29.1.57.16.85-1.6.5-1.61.74-.88,2.02,1.15,2.05,2.98,5.18,4.16,7.24.55-2.99,1.09-5.73,1.41-7.85.25-1.62.1-1.96-1.91-1.86-.05-.28-.1-.57-.15-.85,1.82-.29,3.64-.57,5.47-.82.04.28.09.57.13.85Z"/>
    <path d="m88.53,94.02c-1.61,2.69-3.53,3.5-4.45,3.63-3.47.5-6.02-2.28-6.56-5.88-.31-2.13.1-4.21,1.13-5.75,1.05-1.64,2.61-2.66,4.18-2.84,2.65-.3,4.91,1.83,5.16,4.3.04.62-.02.91-.49,1.09-.58.19-4.35.9-7.84,1.52.5,4.2,3.09,5.56,5.13,5.29,1.18-.16,2.22-.82,3.19-2.01.18.22.36.44.54.66Zm-6.27-9.58c-1.39.17-2.56,1.68-2.62,4.27,1.66-.23,3.32-.44,5.07-.74.54-.06.7-.24.64-.7-.16-1.65-1.39-3.03-3.09-2.83Z"/>
    <path d="m98.96,95.59c-.02-.28-.03-.57-.05-.85,1.68-.32,1.84-.54,1.73-2.62-.09-1.67-.19-3.35-.28-5.03-.12-2.13-.97-3.53-2.98-3.39-1.25.09-2.38.91-3.24,1.85.2,2.4.39,4.79.58,7.19.17,2.12.34,2.16,2.07,2.18.02.29.04.57.06.86-2.08.19-4.16.41-6.24.65-.03-.29-.05-.58-.08-.86,1.89-.43,2.05-.57,1.88-2.6-.18-2.11-.37-4.23-.57-6.35-.18-2-.4-2.08-2.07-2.2-.03-.27-.05-.54-.08-.8,1.46-.39,2.92-.92,4.15-1.6.06.71.14,1.69.2,2.43.57-.48,1.2-.99,1.95-1.57.81-.61,1.58-1.03,2.47-1.09,2.46-.15,4.09,1.58,4.23,4.52.09,1.92.18,3.85.27,5.77.09,2.06.27,2.14,1.97,2.21.01.28.02.56.03.85-2.01.13-4.01.28-6.01.45Z"/>
    <path d="m117.67,91.95c-1.33,1.74-3.3,3.1-5.05,3.17-3.69.15-5.96-2.82-6.08-6.06-.08-2.39.87-4.44,2.89-6.03,1.6-1.28,3.45-1.79,4.65-1.8,1.39-.01,2.41.4,2.87.79.43.33.49.54.49.86,0,.71-.78,1.34-1.11,1.34-.15,0-.28-.06-.58-.29-.95-.83-2-1.24-3.1-1.22-2.03.03-3.77,1.77-3.69,4.91.08,4.19,2.88,5.44,4.59,5.4,1.24-.04,2.24-.39,3.62-1.72.17.21.33.43.49.65Z"/>
    <path d="m118.65,94.6c0-.28.01-.55.02-.83,1.89-.2,2.13-.34,2.19-2.29.14-4.72.25-9.44.35-14.18.03-1.81-.12-1.99-2.15-2.27,0-.26,0-.52,0-.77,1.72-.15,3.71-.57,4.75-.89-.04,1.39-.08,2.81-.12,4.2-.14,4.65-.3,9.28-.48,13.91-.08,1.94.09,2.08,2.01,2.28-.01.27-.03.55-.04.82-2.18-.02-4.35,0-6.52.02Z"/>
    <path d="m136.01,95.21c-.44-.02-1.07-.28-1.34-.61-.35-.39-.49-.8-.59-1.33-1.26.73-2.79,1.75-3.7,1.73-2.09-.05-3.48-1.79-3.38-3.66.08-1.43.94-2.36,2.64-2.85,1.88-.56,4.23-1.2,4.94-1.68.02-.19.03-.39.05-.58.17-2.05-.85-3.3-2.47-3.38-.71-.04-1.17.27-1.5.6-.37.39-.62,1.03-.95,1.86-.18.46-.47.66-.93.64-.58-.02-1.31-.63-1.28-1.33.02-.41.44-.75,1.08-1.14.93-.58,2.79-1.59,4.6-1.84.94.05,1.88.37,2.56.93,1.02.93,1.42,1.94,1.28,3.44-.17,1.85-.35,3.7-.53,5.55-.13,1.32.34,1.75.87,1.78.36.02.76-.1,1.11-.26.07.27.14.55.21.82-.89.43-1.78.86-2.67,1.3Zm-1.52-7.39c-.7.28-2.2.83-2.92,1.09-1.19.45-1.91.98-1.98,2.06-.1,1.54,1.04,2.27,1.99,2.3.77.02,1.88-.4,2.53-.95.12-1.36.27-3.14.39-4.5Z"/>
    <path d="m161.05,85.55c-1.64-.01-1.98.26-2.92,1.71-1.3,2-3.47,5.66-5.39,9.19-.31-.03-.61-.06-.92-.1-.67-3.09-1.44-6.12-2.21-9.14-1.53,2.46-3.34,5.46-4.96,8.5-.3-.02-.59-.05-.89-.07-.61-3.44-1.34-6.88-2.23-10.4-.39-1.59-.65-1.78-2.16-2.07.03-.26.05-.52.08-.78,2.16.16,4.33.35,6.5.55-.03.26-.07.51-.1.77-1.91.11-2.04.25-1.77,1.59.44,2.25.97,4.64,1.4,6.82,1.6-2.78,3.24-5.59,4.92-8.57.28.03.56.06.84.09.72,3.05,1.49,6.2,2.23,9.34.96-1.62,2.42-4.21,3.38-6.16.66-1.38.44-1.56-1.64-2.08.04-.25.09-.5.13-.75,1.95.25,3.91.52,5.86.8-.05.25-.1.5-.15.74Z"/>
  </g>
</svg>