<?xml version="1.0" encoding="UTF-8"?>
<svg id="prefects" xmlns="http://www.w3.org/2000/svg" xmlns:xlink="http://www.w3.org/1999/xlink" viewBox="0 0 164 175">
  <defs>
    <style>
      .cls-1 {
        fill: url(#Ikke-navngivet_forløb_403);
      }

      .cls-1, .cls-2, .cls-3, .cls-4 {
        stroke-miterlimit: 10;
      }

      .cls-1, .cls-2, .cls-4 {
        stroke: gold;
      }

      .cls-2 {
        fill: url(#Ikke-navngivet_forløb_479-2);
      }

      .cls-3 {
        fill: url(#Ikke-navngivet_forløb_48);
        stroke: #cd7f32;
      }

      .cls-4 {
        fill: url(#Ikke-navngivet_forløb_479);
      }
    </style>
    <radialGradient id="Ikke-navngivet_forløb_48" data-name="Ikke-navngivet forløb 48" cx="82" cy="98.5" fx="82" fy="98.5" r="70.43" gradientTransform="translate(-1.41) scale(1.02 1)" gradientUnits="userSpaceOnUse">
      <stop offset="0" stop-color="#4139e1"/>
      <stop offset=".51" stop-color="#4167e1"/>
      <stop offset=".53" stop-color="#4169e1"/>
      <stop offset=".65" stop-color="#4161e1"/>
      <stop offset=".83" stop-color="#414ce1"/>
      <stop offset=".97" stop-color="#4139e1"/>
    </radialGradient>
    <linearGradient id="Ikke-navngivet_forløb_403" data-name="Ikke-navngivet forløb 403" x1="-25.17" y1="-150.13" x2="133.42" y2="-150.13" gradientTransform="translate(39.49 243.2) rotate(-3.16)" gradientUnits="userSpaceOnUse">
      <stop offset="0" stop-color="#ffebca"/>
      <stop offset=".52" stop-color="#ffebcb"/>
      <stop offset=".57" stop-color="#ffebcd"/>
      <stop offset=".97" stop-color="#ffebcd"/>
    </linearGradient>
    <linearGradient id="Ikke-navngivet_forløb_479" data-name="Ikke-navngivet forløb 479" x1="5.55" y1="72.99" x2="26.56" y2="72.99" gradientUnits="userSpaceOnUse">
      <stop offset="0" stop-color="#d4c082"/>
      <stop offset=".46" stop-color="#d5c183"/>
      <stop offset=".63" stop-color="#d8c48a"/>
      <stop offset=".75" stop-color="#dfcb96"/>
      <stop offset=".84" stop-color="#e9d5a7"/>
      <stop offset=".92" stop-color="#f5e1bd"/>
      <stop offset=".97" stop-color="#ffebcd"/>
    </linearGradient>
    <linearGradient id="Ikke-navngivet_forløb_479-2" data-name="Ikke-navngivet forløb 479" x1="12106.8" y1="1869.53" x2="12136.89" y2="1869.53" gradientTransform="translate(6345.72 -2179.41) rotate(148.64) scale(.53 .68)" xlink:href="#Ikke-navngivet_forløb_479"/>
  </defs>
  <path class="cls-3" d="m143.95,101.41v-17.41c0-5-12.2-25-14.03-29.54-1.83-4.54-10.37-6.46-11.81-11.08-1.44-4.62,7.54-12.38,7.54-12.38l-5.08-5s-4.07,5-14.89,4.92-5.44,1.08-11.54.08-12.2,8-12.2,8h-.06s-6.11-8.99-12.21-7.99-.71-.15-11.54-.07c-10.83.09-14.9-4.91-14.9-4.91l-5.08,5s8.99,7.75,7.55,12.37c-1.44,4.62-9.97,6.55-11.8,11.09-1.83,4.54-14.01,24.55-14,29.55,0,5,.02,17.41.02,17.41,0,0-9.15-2.4-7.11,6.6,2.04,9,12.22,19.99,12.22,19.99,0,0,4-3,7.08,0s13.26,9.99,13.26,12.99c0,3-5.08,7-2.02,11,2.99,3.92,37.18,18.35,38.58,18.94v.03s.03-.01.03-.01c0,0,.03.01.03.01v-.03c1.4-.59,35.57-15.05,38.56-18.97,3.05-4-2.03-8-2.03-11s10.17-10,13.25-13c3.08-3,7.08,0,7.08,0,0,0,10.17-11,12.2-20s-7.12-6.59-7.12-6.59Z"/>
  <g>
    <g>
      <path class="cls-1" d="m5.28,80l3.35,38.91s50.58-15.17,79.15-16.26,77.5-1.54,77.5-1.54l-8.48-39.11-16.05,1.41-53.81,2.9c-2.31.12-4.6.38-6.88.78L5.28,80Z"/>
      <polygon class="cls-4" points="26.56 66.67 20.72 78.15 5.55 79.3 26.56 66.67"/>
      <polygon class="cls-2" points="152.59 114.75 152.39 102.26 163.1 101.11 152.59 114.75"/>
    </g>
    <g>
      <path d="m36.94,80.69c2.54-.62,4.71-.6,6.43.19,1.65.77,3,2.31,3.55,4.75,1.18,5.4-2.6,8.6-5.8,9.48-.37.1-.72.16-.93.17-.83-.01-1.67-.02-2.51-.03.5,1.94,1,3.89,1.5,5.83.8,3.14,1.05,3.13,4.15,2.64.08.35.17.69.25,1.04-3,.86-5.98,1.77-8.94,2.75-.1-.35-.19-.7-.29-1.05,2.69-1.24,2.77-1.49,1.94-4.6-1.32-4.95-2.66-9.91-4.03-14.87-.92-3.33-1.33-3.32-4.2-2.83-.1-.35-.2-.7-.3-1.05,3.04-.86,6.1-1.67,9.17-2.43Zm.41,13.26c.47.11,1.45.12,2.61-.19,2.27-.62,4.82-2.59,3.73-7.27-.95-4.09-3.93-5.15-6.92-4.4-1.03.26-1.73.64-1.87.95-.21.33-.2.81.07,1.82.8,3.03,1.6,6.06,2.39,9.09Z"/>
      <path d="m60.51,100.57c-2.55.54-5.09,1.11-7.61,1.73-.07-.34-.14-.69-.21-1.03,2.04-.72,2.21-.95,1.73-3.34-.51-2.55-1.02-5.11-1.54-7.67-.5-2.43-.66-2.52-2.74-2.35-.07-.31-.13-.62-.2-.92,1.65-.66,3.14-1.43,4.65-2.52.24,1.21.56,2.84.79,4.05.84-2.16,1.95-4.46,3.73-4.76,1.32-.23,2.21.49,2.36,1.41.14.84-.28,1.74-.85,2.22-.31.28-.6.29-.92.09-.62-.46-1.11-.75-1.74-.63-.74.14-1.82,1.52-2.22,3.55.45,2.31.89,4.61,1.32,6.91.46,2.43.66,2.56,3.27,2.24.06.34.12.68.18,1.02Z"/>
      <path d="m76.91,94.61c-1.86,3.16-4.11,4.15-5.19,4.32-4.07.68-7.11-2.47-7.81-6.68-.41-2.48.04-4.93,1.24-6.76,1.21-1.94,3.04-3.17,4.9-3.41,3.13-.4,5.83,2.05,6.16,4.92.05.72-.02,1.06-.56,1.27-.69.22-5.12,1.12-9.22,1.94.66,4.89,3.72,6.4,6.12,6.04,1.39-.21,2.6-1.01,3.73-2.4.21.25.43.5.64.75Zm-7.52-11.03c-1.64.22-3,2.02-3.03,5.05,1.95-.31,3.91-.6,5.97-.99.63-.08.82-.29.75-.83-.21-1.92-1.69-3.5-3.69-3.23Z"/>
      <path d="m80.09,81.41c-.03-.32-.07-.65-.1-.97-.27-2.57.35-5.32,2.51-7.4,1.2-1.19,2.57-1.88,4.02-2.13,1.28-.03,2.48.35,3.13,1,.37.38.46.73.31,1.23-.09.36-.46.87-.81,1.17-.39.26-.69.21-1.08-.02-.79-.6-1.9-1.37-3.13-1.3-2.76.16-2.4,3.78-2.15,6.49.05.56.11,1.12.16,1.68,1.28-.1,2.55-.2,3.83-.28.24.3.13,1.2-.25,1.48-1.15.08-2.3.17-3.45.26.32,3.43.62,6.86.92,10.29.22,2.56.6,2.55,3.18,2.58.02.33.05.66.07.99-2.66.26-5.32.56-7.97.9-.03-.33-.07-.67-.1-1,2.12-.49,2.35-.65,2.12-2.97-.34-3.51-.69-7.02-1.05-10.54-.85.08-1.7.16-2.54.25-.06-.13-.12-.25-.19-.38.22-.39.45-.77.67-1.16.64-.06,1.27-.12,1.91-.18Z"/>
      <path d="m101.58,92.59c-2.18,2.83-4.53,3.56-5.63,3.63-4.14.27-6.88-3.01-7.18-7.08-.17-2.4.52-4.69,1.9-6.32,1.4-1.74,3.36-2.74,5.26-2.79,3.18-.09,5.66,2.5,5.7,5.26-.02.69-.12,1.01-.69,1.16-.71.15-5.25.58-9.44.99.18,4.72,3.1,6.44,5.54,6.32,1.41-.07,2.71-.72,3.98-1.94.19.26.38.52.57.78Zm-6.46-11.21c-1.67.06-3.21,1.65-3.54,4.53,1.99-.11,3.98-.21,6.08-.38.64-.02.85-.2.83-.72-.02-1.84-1.35-3.49-3.38-3.42Z"/>
      <path d="m117.34,92.42c-1.64,1.89-4.01,3.34-6.07,3.34-4.34,0-6.92-3.43-6.97-7.13-.02-2.72,1.17-5.02,3.61-6.74,1.93-1.38,4.15-1.86,5.58-1.81,1.65.06,2.85.59,3.38,1.06.5.4.56.63.55,1.01-.03.81-.97,1.47-1.37,1.46-.18,0-.32-.08-.68-.37-1.09-.99-2.32-1.51-3.64-1.55-2.41-.07-4.52,1.83-4.53,5.4-.04,4.77,3.23,6.3,5.23,6.33,1.46.02,2.65-.34,4.33-1.77.19.25.37.51.56.76Z"/>
      <path d="m126.14,95.8c-.62.26-1.18.36-1.53.34-2.21-.12-3.29-1.46-3.11-4.12.22-3.23.43-6.46.63-9.7-.84-.06-1.68-.11-2.52-.16-.04-.14-.08-.27-.13-.41.35-.31.69-.61,1.04-.91.56.04,1.13.07,1.69.11.06-.94.11-1.87.17-2.81.74-.62,1.88-1.4,2.64-2,.19.04.37.08.56.12-.17,1.39-.34,3.32-.46,4.91,1.4.11,2.8.24,4.2.37.3.36.12,1.07-.34,1.33-1.32-.12-2.64-.24-3.95-.34-.21,2.83-.43,5.66-.65,8.48-.21,2.68.86,3.24,1.76,3.3.84.05,1.67-.18,2.18-.38.08.29.15.58.23.87-.81.32-1.61.65-2.4.99Z"/>
      <path d="m140.45,86.75c-.38-1.94-1.16-3.37-3.41-3.65-1.29-.16-2.37.54-2.52,1.84-.16,1.4.81,2.16,2.72,3.24,2.92,1.69,4.3,2.86,3.96,4.96-.48,2.92-3.63,4.06-6.35,3.8-1.8-.17-3.33-.83-4.01-1.28-.07-.96-.18-2.77-.21-3.86.35-.02.69-.05,1.04-.07.4,2.14,1.42,3.93,3.85,4.17,1.32.13,2.56-.57,2.76-1.91.21-1.44-.64-2.29-2.41-3.34-2.35-1.37-4.28-2.61-4.03-4.96.24-2.39,2.72-3.99,6.2-3.53,1.55.2,2.76.7,3.49.9,0,.79-.04,2.84.03,3.63-.36.03-.72.05-1.09.08Z"/>
    </g>
  </g>
</svg>