<?xml version="1.0" encoding="UTF-8"?>
<svg id="housename_banner" data-name="housename banner" xmlns="http://www.w3.org/2000/svg" xmlns:xlink="http://www.w3.org/1999/xlink" viewBox="0 0 189 162">
  <defs>
    <style>
      .cls-1 {
        fill: url(#Ikke-navngivet_forløb_403);
      }

      .cls-1, .cls-2, .cls-3 {
        stroke: gold;
        stroke-miterlimit: 10;
      }

      .cls-2 {
        fill: url(#Ikke-navngivet_forløb_479-2);
      }

      .cls-3 {
        fill: url(#Ikke-navngivet_forløb_479);
      }
    </style>
    <linearGradient id="Ikke-navngivet_forløb_403" data-name="Ikke-navngivet forløb 403" x1="-6.2" y1="-161.89" x2="149.8" y2="-161.89" gradientTransform="translate(27.49 257.92) rotate(-3.16)" gradientUnits="userSpaceOnUse">
      <stop offset="0" stop-color="#ffebca"/>
      <stop offset=".52" stop-color="#ffebcb"/>
      <stop offset=".57" stop-color="#ffebcd"/>
      <stop offset=".97" stop-color="#ffebcd"/>
    </linearGradient>
    <linearGradient id="Ikke-navngivet_forløb_479" data-name="Ikke-navngivet forløb 479" x1="11.85" y1="74.99" x2="32.51" y2="74.99" gradientUnits="userSpaceOnUse">
      <stop offset="0" stop-color="#d4c082"/>
      <stop offset=".46" stop-color="#d5c183"/>
      <stop offset=".63" stop-color="#d8c48a"/>
      <stop offset=".75" stop-color="#dfcb96"/>
      <stop offset=".84" stop-color="#e9d5a7"/>
      <stop offset=".92" stop-color="#f5e1bd"/>
      <stop offset=".97" stop-color="#ffebcd"/>
    </linearGradient>
    <linearGradient id="Ikke-navngivet_forløb_479-2" data-name="Ikke-navngivet forløb 479" x1="12561.84" y1="2572.08" x2="12591.65" y2="2572.08" gradientTransform="translate(6805.26 -1896.51) rotate(148.64) scale(.53 .68)" xlink:href="#Ikke-navngivet_forløb_479"/>
  </defs>
  <g>
    <path class="cls-1" d="m11.58,82l3.3,38.91s49.76-15.17,77.87-16.26,76.24-1.54,76.24-1.54l-8.35-39.11-15.79,1.41-52.94,2.9c-2.27.12-4.53.38-6.77.78l-73.56,12.91Z"/>
    <polygon class="cls-3" points="32.51 68.67 26.77 80.15 11.85 81.3 32.51 68.67"/>
    <polygon class="cls-2" points="156.5 116.75 156.3 104.26 166.83 103.11 156.5 116.75"/>
  </g>
  <g>
    <path d="m42.18,87.05c-1-1.99-2.34-3.89-5.18-3.15-2.36.62-2.69,2.7-2.26,4.38.57,2.23,2.16,2.99,4.93,3.71,4,1.04,5.84,2.15,6.51,5.19.73,3.37-1.29,6.61-4.9,7.71-1.68.51-3.27.42-4.55.27-.45-.83-1.35-2.93-2.01-4.61.27-.18.54-.36.82-.53,1.13,2,3.07,4.4,5.99,3.53,2.03-.6,2.91-2.55,2.44-4.64-.57-2.47-1.98-3.16-4.91-3.99-3.5-.97-5.63-2-6.42-5.02-.76-2.88.73-6.26,4.74-7.29,1.7-.44,3.48-.36,4.15-.38.39,1.13.81,2.39,1.53,4.42-.29.14-.59.28-.88.42Z"/>
    <path d="m49.17,102.14c-.06-.3-.13-.6-.19-.9,1.78-.67,1.98-.88,1.54-2.99-1.06-5.1-2.14-10.21-3.23-15.32-.42-1.95-.61-2.12-2.62-1.93-.06-.28-.12-.56-.19-.83,1.61-.57,3.4-1.48,4.31-2.07.31,1.5.63,3.04.95,4.54,1.04,5.03,2.06,10.05,3.07,15.06.42,2.1.62,2.22,2.52,1.97.06.3.11.59.17.89-2.12.5-4.22,1.02-6.33,1.58Z"/>
    <path d="m67.73,84.77c-1.54.49-1.83.8-2.3,2.71-.47,1.89-.95,4.15-2.05,10.03-1.04,5.42-1.2,7.5-1.37,9.24-.05.7-.34.93-.7,1.01-.89.21-1.83-.33-1.97-1.12-.07-.41.07-.74.42-1.25.76-1,1.28-1.9,1.48-2.76.37-1.46.61-2.65.68-3.09.04-.5-.01-.78-.28-1.28-1.73-3.37-4.03-6.94-5.36-9.05-.98-1.61-1.33-1.94-3.02-1.82-.06-.29-.11-.57-.17-.86,2.02-.42,4.05-.82,6.08-1.19.05.29.1.57.15.86-1.34.48-1.43.83-.83,1.93,1.43,2.41,2.84,4.82,4.21,7.22.45-2.34,1.06-6.05,1.37-8.14.17-1.26-.1-1.57-1.89-1.52-.05-.28-.1-.57-.14-.85,1.85-.32,3.7-.61,5.55-.89.04.28.09.57.13.85Z"/>
    <path d="m76.68,96.53c-.46.35-.91.54-1.2.59-1.86.28-3-.77-3.34-3.27-.41-3.02-.83-6.05-1.25-9.08-.7.1-1.39.2-2.09.3-.06-.12-.12-.24-.18-.36.23-.34.46-.69.69-1.03.47-.07.93-.13,1.4-.2-.12-.87-.25-1.75-.37-2.63.5-.7,1.28-1.63,1.78-2.32.16,0,.32,0,.47,0,.12,1.32.33,3.13.53,4.62,1.16-.15,2.32-.29,3.48-.42.31.28.3.97-.03,1.29-1.1.13-2.19.26-3.29.4.35,2.66.7,5.31,1.04,7.97.32,2.52,1.31,2.85,2.08,2.74.7-.1,1.34-.47,1.73-.74.12.26.24.51.36.77-.6.45-1.2.9-1.8,1.35Z"/>
    <path d="m87.89,95.22c-.02-.28-.05-.57-.07-.85,1.69-.34,1.92-.51,1.77-2.52-.13-1.66-.25-3.33-.38-5-.19-2.53-1.28-3.75-3.33-3.56-1.17.09-2.33.78-3.08,1.88.24,2.42.48,4.84.71,7.26.19,2,.44,2.15,2.23,2.15.02.29.05.57.07.86-2.13.22-4.26.48-6.38.76-.03-.29-.06-.58-.09-.87,1.68-.37,2.05-.57,1.83-2.63-.52-4.95-1.06-9.91-1.61-14.88-.18-1.64-.32-2.04-2.45-2.02-.03-.27-.06-.54-.1-.81,1.65-.32,3.49-.94,4.58-1.46.13,1.2.27,2.56.4,3.83.23,2.23.46,4.46.69,6.68.98-1.21,2.57-2.49,4.24-2.61,2.53-.18,4.41,1.28,4.66,4.93.12,1.78.25,3.56.37,5.34.13,2,.38,2.13,2.1,2.16.02.28.03.56.05.85-2.07.15-4.14.32-6.21.52Z"/>
    <path d="m106.48,91.62c-1.88,2.4-3.92,2.98-4.87,3.02-3.59.16-5.92-2.7-6.13-6.18-.11-2.05.5-3.99,1.7-5.36,1.22-1.46,2.89-2.28,4.51-2.3,2.71-.03,4.81,2.21,4.85,4.58-.02.59-.11.86-.59.98-.61.12-4.5.43-8.11.7.11,4.04,2.62,5.56,4.73,5.49,1.22-.04,2.34-.57,3.43-1.6.16.23.33.45.49.67Zm-5.5-9.68c-1.43.02-2.76,1.36-3.06,3.81,1.71-.06,3.42-.11,5.22-.23.55,0,.73-.16.72-.61-.01-1.58-1.14-3-2.87-2.97Z"/>
    <path d="m115.28,94.12c-2.28-.04-4.56-.04-6.83-.02,0-.28,0-.55,0-.83,1.87-.19,2.05-.33,2.05-2.25,0-2.04,0-4.08-.01-6.12,0-1.94-.13-2.04-1.93-2.27,0-.25,0-.49,0-.74,1.52-.22,2.91-.55,4.38-1.12,0,.97,0,2.26-.01,3.23,1.09-1.5,2.41-3.06,3.98-2.99,1.16.05,1.8.76,1.78,1.48-.02.67-.53,1.28-1.09,1.55-.31.16-.56.12-.8-.09-.46-.45-.82-.76-1.38-.78-.65-.02-1.81.85-2.49,2.33-.01,1.84-.02,3.67-.04,5.51-.02,1.93.13,2.07,2.42,2.28,0,.27-.01.54-.02.81Z"/>
    <path d="m119.71,94.23c.01-.27.02-.54.03-.81,1.89-.1,2.11-.23,2.19-2.19.09-1.97.17-3.95.25-5.93.07-1.78-.02-1.91-1.87-2.31,0-.23.01-.46.02-.69,1.63-.17,3.11-.45,4.48-.86-.06,1.21-.11,2.41-.17,3.62-.1,2.1-.21,4.2-.32,6.3-.1,1.95.1,2.1,2.03,2.39-.02.27-.03.53-.05.8-2.2-.13-4.39-.24-6.59-.32Zm3.8-15.71c-.88-.07-1.65-.84-1.63-1.65.03-.93.85-1.54,1.78-1.46.9.07,1.6.8,1.56,1.72-.04.8-.79,1.46-1.71,1.39Z"/>
    <path d="m136.39,95.38c.03-.26.05-.52.08-.78,1.76.02,1.96-.15,2.17-2.04.17-1.53.33-3.05.5-4.58.21-1.94-.43-3.36-2.49-3.61-1.28-.15-2.55.39-3.58,1.08-.18,2.2-.36,4.4-.55,6.59-.17,1.94,0,2.01,1.76,2.34-.02.26-.05.52-.07.78-2.15-.2-4.3-.37-6.45-.52.02-.26.04-.53.06-.79,1.99-.06,2.18-.15,2.32-2.02.15-1.94.29-3.88.43-5.83.13-1.84-.08-1.95-1.74-2.36.02-.25.03-.49.05-.74,1.54-.09,3.1-.31,4.46-.7-.05.65-.12,1.55-.18,2.23.65-.33,1.37-.68,2.23-1.06.92-.41,1.77-.64,2.67-.52,2.52.32,3.9,2.19,3.58,4.87-.2,1.75-.41,3.5-.62,5.25-.23,1.87-.06,1.97,1.66,2.36-.03.26-.07.51-.1.77-2.06-.26-4.12-.5-6.19-.71Z"/>
  </g>
</svg>