<?xml version="1.0" encoding="UTF-8"?>
<svg id="housename_banner_kopi" data-name="housename banner kopi" xmlns="http://www.w3.org/2000/svg" xmlns:xlink="http://www.w3.org/1999/xlink" viewBox="0 0 209 83">
  <defs>
    <style>
      .cls-1 {
        fill: url(#Ikke-navngivet_forløb_403);
      }

      .cls-1, .cls-2, .cls-3 {
        stroke: gold;
        stroke-miterlimit: 10;
      }

      .cls-2 {
        fill: url(#Ikke-navngivet_forløb_479-2);
      }

      .cls-3 {
        fill: url(#Ikke-navngivet_forløb_479);
      }
    </style>
    <linearGradient id="Ikke-navngivet_forløb_403" data-name="Ikke-navngivet forløb 403" x1="16.62" y1="-220.26" x2="175.22" y2="-220.26" gradientTransform="translate(17.53 272.53) rotate(-3.16)" gradientUnits="userSpaceOnUse">
      <stop offset="0" stop-color="#ffebca"/>
      <stop offset=".52" stop-color="#ffebcb"/>
      <stop offset=".57" stop-color="#ffebcd"/>
      <stop offset=".97" stop-color="#ffebcd"/>
    </linearGradient>
    <linearGradient id="Ikke-navngivet_forløb_479" data-name="Ikke-navngivet forløb 479" x1="21.46" y1="29.99" x2="42.46" y2="29.99" gradientUnits="userSpaceOnUse">
      <stop offset="0" stop-color="#d4c082"/>
      <stop offset=".46" stop-color="#d5c183"/>
      <stop offset=".63" stop-color="#d8c48a"/>
      <stop offset=".75" stop-color="#dfcb96"/>
      <stop offset=".84" stop-color="#e9d5a7"/>
      <stop offset=".92" stop-color="#f5e1bd"/>
      <stop offset=".97" stop-color="#ffebcd"/>
    </linearGradient>
    <linearGradient id="Ikke-navngivet_forløb_479-2" data-name="Ikke-navngivet forløb 479" x1="12991.05" y1="3243.24" x2="13021.13" y2="3243.24" gradientTransform="translate(7250.26 -1671.78) rotate(148.64) scale(.53 .68)" xlink:href="#Ikke-navngivet_forløb_479"/>
  </defs>
  <g>
    <path class="cls-1" d="m21.19,37l3.35,38.91s50.58-15.17,79.15-16.26,77.5-1.54,77.5-1.54l-8.48-39.11-16.05,1.41-53.81,2.9c-2.31.12-4.6.38-6.88.78l-74.77,12.91Z"/>
    <polygon class="cls-3" points="42.46 23.67 36.63 35.15 21.46 36.3 42.46 23.67"/>
    <polygon class="cls-2" points="168.5 71.75 168.29 59.26 179 58.11 168.5 71.75"/>
  </g>
  <g>
    <path d="m35.76,59.33c-.07-.2-.14-.4-.2-.6,1.47-.68,1.59-.81.98-2.65-.95-2.85-1.9-5.71-2.87-8.56-.62-1.85-.81-1.9-2.49-1.61-.07-.2-.14-.4-.21-.61,1.76-.53,3.53-1.04,5.3-1.54.07.2.13.4.2.6-1.58.66-1.71.79-1.09,2.65.94,2.85,1.88,5.71,2.81,8.56.6,1.85.77,1.87,2.4,1.59.06.2.13.4.19.6-1.68.51-3.35,1.03-5.01,1.56Z"/>
    <path d="m47.12,55.92c-.06-.2-.12-.4-.18-.6,1.06-.43,1.13-.61.71-2.07-.34-1.18-.68-2.36-1.02-3.54-.44-1.5-1.22-2.39-2.51-2.04-.8.21-1.41.94-1.83,1.7.51,1.68,1.03,3.35,1.53,5.03.45,1.49.58,1.49,1.73,1.31.06.2.12.4.18.6-1.36.39-2.72.78-4.07,1.18-.06-.2-.13-.4-.19-.6,1.2-.52,1.28-.64.84-2.06-.46-1.48-.92-2.95-1.38-4.43-.44-1.4-.59-1.43-1.7-1.32-.06-.19-.12-.37-.18-.56.9-.44,1.77-.99,2.47-1.62.15.49.36,1.18.52,1.7.3-.41.63-.85,1.03-1.35.43-.53.87-.93,1.44-1.08,1.58-.41,2.93.61,3.52,2.69.39,1.36.77,2.72,1.15,4.07.41,1.46.54,1.49,1.68,1.33.06.2.11.4.17.6-1.31.35-2.62.7-3.92,1.06Z"/>
    <path d="m58.07,58.62c-.05-.2-.1-.4-.15-.6,1.44-.52,1.51-.65,1.14-2.16-.28-1.16-.57-2.32-.86-3.48-.61.46-1.22.92-1.82,1.39-2.8.69-4.81-1.48-5.39-3.56-.87-3.13,1.09-5.97,3.87-6.56.69-.09,1.22-.09,1.5-.04.28.03.38.03.56-.01.11-.05.36-.17.62-.38.03.01.06.03.1.05.09.45.16.89.5,2.3.82,3.33,1.62,6.66,2.42,9.99.35,1.47.5,1.52,1.86,1.38.05.2.09.4.14.59-1.5.35-3,.72-4.5,1.09Zm-1.66-13.44c-.58-.48-1.53-.6-2.19-.45-1.37.31-2.4,1.88-1.72,4.41.76,2.8,2.68,3.66,4.19,3.3.61-.15,1.03-.43,1.35-.71-.54-2.18-1.09-4.36-1.64-6.55Z"/>
    <path d="m71.25,49.77c-.9.32-1.9.8-2.82,1.32-.07-.34-.23-1.1-.34-1.63-.85,1.16-1.56,2.02-2.61,2.24-1.29.27-2.6-.35-3.14-2.67-.32-1.37-.63-2.75-.95-4.13-.27-1.15-.46-1.24-.98-1.25-.19,0-.39,0-.58.01-.04-.18-.09-.37-.13-.55.85-.22,2.12-.71,2.77-.97.09.69.33,1.71.64,3.11.22.96.44,1.93.65,2.89.42,1.87,1.43,2.21,2.3,2.03.72-.15,1.36-.63,1.89-1.44-.34-1.64-.69-3.29-1.04-4.94-.24-1.14-.51-1.25-1.22-1.23-.22.01-.44.03-.66.04-.04-.18-.08-.37-.12-.55,1.27-.31,2.63-.8,3.07-.97.49,2.36.97,4.73,1.45,7.09.21,1.06.4,1.18,1.15,1.08.18-.03.37-.06.55-.08.04.2.08.39.11.59Z"/>
    <path d="m72.29,50.08c-.04-.2-.08-.39-.11-.59,1.2-.35,1.32-.48,1.05-1.91-.27-1.45-.54-2.9-.82-4.35-.25-1.31-.32-1.38-1.57-1.39-.03-.17-.07-.34-.1-.51,1.01-.37,1.91-.8,2.71-1.32.16.88.33,1.77.49,2.66.28,1.55.57,3.09.85,4.63.26,1.43.41,1.51,1.71,1.42.03.2.07.39.1.59-1.44.25-2.87.5-4.3.77Zm-.15-11.99c-.57.09-1.18-.35-1.3-.94-.13-.68.29-1.24.88-1.34.58-.09,1.14.32,1.27.99.11.59-.26,1.19-.85,1.29Z"/>
    <path d="m81.56,41.65c-.55-1.16-1.21-1.93-2.45-1.75-.71.1-1.17.71-1.03,1.55.15.9.8,1.23,2.01,1.61,1.86.61,2.81,1.11,3.01,2.49.28,1.92-1.22,3.15-2.76,3.39-1.02.16-1.97-.02-2.42-.21-.2-.59-.57-1.72-.77-2.4.18-.07.37-.13.55-.2.59,1.29,1.45,2.27,2.82,2.05.74-.12,1.29-.76,1.16-1.64-.14-.94-.75-1.34-1.9-1.73-1.51-.5-2.76-.99-3.02-2.51-.27-1.53.78-2.91,2.7-3.18.85-.12,1.58,0,2,0,.14.49.48,1.79.66,2.28-.19.08-.37.15-.56.23Z"/>
    <path d="m84.76,48.02c-.03-.19-.06-.39-.08-.58,1.22-.3,1.35-.42,1.15-1.84-.2-1.43-.4-2.86-.6-4.3-.18-1.29-.25-1.37-1.5-1.42-.02-.17-.05-.34-.07-.5,1.03-.32,1.95-.71,2.78-1.19.12.87.24,1.75.35,2.62.2,1.53.41,3.05.61,4.58.19,1.42.34,1.5,1.64,1.46.02.19.05.39.07.58-1.45.19-2.9.38-4.35.59Zm.47-11.77c-.58.07-1.17-.39-1.25-.97-.1-.67.35-1.21.96-1.28.58-.07,1.13.36,1.22,1.02.08.58-.32,1.16-.92,1.23Z"/>
    <path d="m93.86,46.84c-.32.22-.62.34-.82.37-1.26.15-2.03-.58-2.22-2.24-.24-2.01-.48-4.02-.72-6.04-.47.05-.94.1-1.41.16-.04-.08-.08-.16-.11-.24.16-.22.32-.44.48-.66.31-.04.63-.07.94-.1-.07-.58-.14-1.16-.21-1.74.34-.46.88-1.06,1.22-1.51.11,0,.21,0,.32.01.06.87.18,2.08.29,3.07.78-.08,1.56-.16,2.34-.23.21.19.19.65-.03.86-.74.07-1.47.15-2.21.22.2,1.77.4,3.54.6,5.3.19,1.68.85,1.91,1.37,1.86.48-.05.91-.29,1.18-.46.08.17.16.35.23.52-.41.29-.83.58-1.24.87Z"/>
    <path d="m99.42,36.95c2.59-.2,4.65,1.63,4.81,4.26.2,3.31-2.09,5.06-4.03,5.25-2.73.26-4.61-1.85-4.85-4.16-.35-3.37,2.1-5.2,4.08-5.34Zm-.19.72c-1.26.1-2.27,1.41-2.05,3.8.25,2.62,1.53,4.4,3.16,4.25,1.23-.11,2.21-1.12,2.01-3.92-.17-2.39-1.3-4.27-3.12-4.13Z"/>
    <path d="m110.41,45.45c-1.53.09-3.07.19-4.6.3-.01-.19-.02-.38-.03-.57,1.25-.21,1.37-.32,1.3-1.64-.07-1.41-.15-2.82-.22-4.23-.07-1.34-.16-1.4-1.36-1.47-.01-.17-.02-.34-.03-.51,1-.22,1.92-.52,2.88-.99.03.67.08,1.57.11,2.24.67-1.1,1.49-2.25,2.53-2.29.77-.03,1.22.42,1.24.92.02.46-.3.92-.67,1.14-.2.13-.37.12-.54-.02-.32-.29-.58-.48-.95-.47-.43.02-1.17.69-1.57,1.75.06,1.27.12,2.55.17,3.82.06,1.34.16,1.43,1.71,1.47,0,.19.01.38.02.57Z"/>
    <path d="m125.39,35.08c-.33-1.31-.91-2.62-2.91-2.62-1.66,0-2.23,1.15-2.22,2.19,0,1.38.93,2.07,2.64,2.92,2.48,1.22,3.53,2.14,3.47,4.02-.07,2.08-1.95,3.67-4.54,3.72-1.21.02-2.25-.29-3.08-.58-.16-.56-.41-1.91-.56-2.99.21-.06.42-.12.63-.18.42,1.33,1.3,3.04,3.4,3,1.45-.03,2.36-1.02,2.39-2.31.03-1.53-.79-2.15-2.6-3.08-2.16-1.11-3.4-2.05-3.41-3.92-.02-1.79,1.53-3.5,4.35-3.49,1.19,0,2.36.31,2.81.4.07.72.14,1.51.28,2.8-.22.04-.44.08-.66.12Z"/>
    <path d="m132.7,49.77c.01-.18.02-.36.03-.55,1.58-.12,1.69-.21,1.79-1.6.07-1.06.15-2.12.22-3.18-.74.26-1.48.52-2.22.78-2.97-.04-4.29-2.36-4.23-4.28.09-2.89,2.89-4.89,5.82-4.77.71.08,1.23.2,1.5.31.27.09.37.11.56.12.13-.01.4-.06.73-.19.03.02.05.04.08.06-.05.41-.12.8-.21,2.09-.21,3.05-.44,6.09-.67,9.14-.1,1.34.03,1.42,1.41,1.61-.02.18-.03.36-.05.54-1.59-.04-3.18-.07-4.77-.08Zm2.47-11.93c-.43-.54-1.33-.87-2.03-.89-1.45-.04-2.94,1.07-3.04,3.4-.11,2.58,1.52,3.76,3.13,3.79.65.01,1.15-.13,1.55-.3.13-2,.26-4,.39-6Z"/>
    <path d="m148.45,45.2c-1,.07-2.13.25-3.2.48.04-.31.11-1,.17-1.47-1.2.8-2.16,1.37-3.28,1.32-1.36-.06-2.46-.9-2.28-3.01.11-1.25.22-2.51.33-3.76.09-1.05-.07-1.17-.59-1.3-.19-.04-.39-.08-.58-.12.01-.17.03-.34.04-.51.91,0,2.32-.12,3.04-.19-.12.62-.2,1.54-.32,2.82-.08.88-.16,1.75-.25,2.63-.16,1.7.73,2.22,1.65,2.27.76.04,1.54-.23,2.31-.8.17-1.49.34-2.98.5-4.47.11-1.04-.12-1.19-.83-1.33-.22-.04-.44-.08-.67-.12.02-.17.03-.33.05-.5,1.36.03,2.86-.08,3.35-.12-.25,2.14-.5,4.28-.76,6.41-.12.96.03,1.1.8,1.19.19.02.38.04.57.06-.02.18-.05.36-.07.53Z"/>
    <path d="m155.93,46.46c-.31-.03-.73-.22-.9-.44-.23-.27-.31-.54-.36-.89-.9.44-2.01,1.05-2.64,1-1.44-.11-2.33-1.3-2.17-2.52.12-.93.76-1.5,1.96-1.77,1.32-.3,2.96-.64,3.47-.94.02-.13.04-.25.06-.38.21-1.34-.44-2.19-1.54-2.29-.49-.05-.81.14-1.05.35-.27.24-.47.65-.74,1.18-.15.29-.35.41-.67.39-.4-.03-.87-.46-.81-.91.04-.27.34-.47.79-.7.66-.35,1.99-.94,3.23-1.05.64.06,1.27.3,1.7.68.65.64.89,1.32.73,2.29-.2,1.21-.39,2.42-.59,3.63-.14.87.16,1.16.53,1.19.25.02.53-.04.78-.13.04.18.08.36.11.54-.64.25-1.27.51-1.9.77Zm-.74-4.9c-.49.16-1.55.47-2.05.62-.84.25-1.36.58-1.46,1.28-.14,1.01.61,1.52,1.27,1.58.53.04,1.32-.19,1.79-.53.14-.89.32-2.05.46-2.94Z"/>
    <path d="m168.55,47.16c-.45.02-2.04.03-3.33.28.08-.39.17-.81.25-1.2-.41.16-1,.35-1.41.51-.91.33-1.48.38-1.73.35-1.63-.18-3.53-1.89-3.08-4.51.44-2.6,3.37-4.27,6.29-3.88.3.04.99.17,1.4.39.18-.91.37-1.81.55-2.72.24-1.18.09-1.24-1.42-1.56.03-.16.06-.32.09-.48,1.11.02,2.68-.03,3.53-.15-.14.68-.31,1.49-.47,2.25-.62,2.96-1.25,5.9-1.89,8.85-.21.96-.09,1.1.66,1.24.22.04.43.08.65.12-.04.17-.08.34-.12.51Zm-1.9-6.6c-.35-.71-1.21-1.13-2.03-1.23-1.02-.13-2.93.25-3.42,2.94-.41,2.26.91,3.61,2.22,3.78.74.08,1.61-.15,2.18-.42.35-1.69.71-3.38,1.05-5.07Z"/>
  </g>
</svg>